<mxfile host="app.diagrams.net" agent="Mozilla/5.0 (Windows NT 10.0; Win64; x64) AppleWebKit/537.36 (KHTML, like Gecko) Chrome/136.0.0.0 Safari/537.36" version="27.1.1">
  <diagram name="Page-1" id="c4acf3e9-155e-7222-9cf6-157b1a14988f">
    <mxGraphModel dx="1530" dy="1438" grid="1" gridSize="10" guides="1" tooltips="1" connect="1" arrows="1" fold="1" page="1" pageScale="1" pageWidth="850" pageHeight="1100" background="none" math="0" shadow="0">
      <root>
        <mxCell id="0" />
        <mxCell id="1" parent="0" />
        <mxCell id="oIyaJ22jeFS1HljBoGAg-193" value="User" style="swimlane;fontStyle=1;align=center;verticalAlign=top;childLayout=stackLayout;horizontal=1;startSize=30.4;horizontalStack=0;resizeParent=1;resizeParentMax=0;resizeLast=0;collapsible=0;marginBottom=0;" parent="1" vertex="1">
          <mxGeometry x="1039" y="514" width="338" height="308.4" as="geometry" />
        </mxCell>
        <mxCell id="oIyaJ22jeFS1HljBoGAg-194" value="-id: String" style="text;strokeColor=none;fillColor=none;align=left;verticalAlign=top;spacingLeft=4;spacingRight=4;overflow=hidden;rotatable=0;points=[[0,0.5],[1,0.5]];portConstraint=eastwest;" parent="oIyaJ22jeFS1HljBoGAg-193" vertex="1">
          <mxGeometry y="30.4" width="338" height="30" as="geometry" />
        </mxCell>
        <mxCell id="oIyaJ22jeFS1HljBoGAg-195" value="-username: String" style="text;strokeColor=none;fillColor=none;align=left;verticalAlign=top;spacingLeft=4;spacingRight=4;overflow=hidden;rotatable=0;points=[[0,0.5],[1,0.5]];portConstraint=eastwest;" parent="oIyaJ22jeFS1HljBoGAg-193" vertex="1">
          <mxGeometry y="60.4" width="338" height="30" as="geometry" />
        </mxCell>
        <mxCell id="oIyaJ22jeFS1HljBoGAg-196" value="-email: String" style="text;strokeColor=none;fillColor=none;align=left;verticalAlign=top;spacingLeft=4;spacingRight=4;overflow=hidden;rotatable=0;points=[[0,0.5],[1,0.5]];portConstraint=eastwest;" parent="oIyaJ22jeFS1HljBoGAg-193" vertex="1">
          <mxGeometry y="90.4" width="338" height="30" as="geometry" />
        </mxCell>
        <mxCell id="oIyaJ22jeFS1HljBoGAg-197" value="-password: String" style="text;strokeColor=none;fillColor=none;align=left;verticalAlign=top;spacingLeft=4;spacingRight=4;overflow=hidden;rotatable=0;points=[[0,0.5],[1,0.5]];portConstraint=eastwest;" parent="oIyaJ22jeFS1HljBoGAg-193" vertex="1">
          <mxGeometry y="120.4" width="338" height="30" as="geometry" />
        </mxCell>
        <mxCell id="oIyaJ22jeFS1HljBoGAg-198" value="-role: String" style="text;strokeColor=none;fillColor=none;align=left;verticalAlign=top;spacingLeft=4;spacingRight=4;overflow=hidden;rotatable=0;points=[[0,0.5],[1,0.5]];portConstraint=eastwest;" parent="oIyaJ22jeFS1HljBoGAg-193" vertex="1">
          <mxGeometry y="150.4" width="338" height="30" as="geometry" />
        </mxCell>
        <mxCell id="oIyaJ22jeFS1HljBoGAg-199" style="line;strokeWidth=1;fillColor=none;align=left;verticalAlign=middle;spacingTop=-1;spacingLeft=3;spacingRight=3;rotatable=0;labelPosition=right;points=[];portConstraint=eastwest;strokeColor=inherit;" parent="oIyaJ22jeFS1HljBoGAg-193" vertex="1">
          <mxGeometry y="180.4" width="338" height="8" as="geometry" />
        </mxCell>
        <mxCell id="oIyaJ22jeFS1HljBoGAg-200" value="+register(userData: Object) : : User" style="text;strokeColor=none;fillColor=none;align=left;verticalAlign=top;spacingLeft=4;spacingRight=4;overflow=hidden;rotatable=0;points=[[0,0.5],[1,0.5]];portConstraint=eastwest;" parent="oIyaJ22jeFS1HljBoGAg-193" vertex="1">
          <mxGeometry y="188.4" width="338" height="30" as="geometry" />
        </mxCell>
        <mxCell id="oIyaJ22jeFS1HljBoGAg-201" value="+login(credentials: Object) : : Token" style="text;strokeColor=none;fillColor=none;align=left;verticalAlign=top;spacingLeft=4;spacingRight=4;overflow=hidden;rotatable=0;points=[[0,0.5],[1,0.5]];portConstraint=eastwest;" parent="oIyaJ22jeFS1HljBoGAg-193" vertex="1">
          <mxGeometry y="218.4" width="338" height="30" as="geometry" />
        </mxCell>
        <mxCell id="oIyaJ22jeFS1HljBoGAg-202" value="+updateProfile(userData: Object) : : User" style="text;strokeColor=none;fillColor=none;align=left;verticalAlign=top;spacingLeft=4;spacingRight=4;overflow=hidden;rotatable=0;points=[[0,0.5],[1,0.5]];portConstraint=eastwest;" parent="oIyaJ22jeFS1HljBoGAg-193" vertex="1">
          <mxGeometry y="248.4" width="338" height="30" as="geometry" />
        </mxCell>
        <mxCell id="oIyaJ22jeFS1HljBoGAg-203" value="+getProfile() : : Object" style="text;strokeColor=none;fillColor=none;align=left;verticalAlign=top;spacingLeft=4;spacingRight=4;overflow=hidden;rotatable=0;points=[[0,0.5],[1,0.5]];portConstraint=eastwest;" parent="oIyaJ22jeFS1HljBoGAg-193" vertex="1">
          <mxGeometry y="278.4" width="338" height="30" as="geometry" />
        </mxCell>
        <mxCell id="oIyaJ22jeFS1HljBoGAg-204" value="Mentor" style="swimlane;fontStyle=1;align=center;verticalAlign=top;childLayout=stackLayout;horizontal=1;startSize=29.818181818181817;horizontalStack=0;resizeParent=1;resizeParentMax=0;resizeLast=0;collapsible=0;marginBottom=0;" parent="1" vertex="1">
          <mxGeometry x="2296" y="899" width="388" height="337.8181818181818" as="geometry" />
        </mxCell>
        <mxCell id="oIyaJ22jeFS1HljBoGAg-205" value="-id: String" style="text;strokeColor=none;fillColor=none;align=left;verticalAlign=top;spacingLeft=4;spacingRight=4;overflow=hidden;rotatable=0;points=[[0,0.5],[1,0.5]];portConstraint=eastwest;" parent="oIyaJ22jeFS1HljBoGAg-204" vertex="1">
          <mxGeometry y="29.818181818181817" width="388" height="30" as="geometry" />
        </mxCell>
        <mxCell id="oIyaJ22jeFS1HljBoGAg-206" value="-userId: String" style="text;strokeColor=none;fillColor=none;align=left;verticalAlign=top;spacingLeft=4;spacingRight=4;overflow=hidden;rotatable=0;points=[[0,0.5],[1,0.5]];portConstraint=eastwest;" parent="oIyaJ22jeFS1HljBoGAg-204" vertex="1">
          <mxGeometry y="59.81818181818181" width="388" height="30" as="geometry" />
        </mxCell>
        <mxCell id="oIyaJ22jeFS1HljBoGAg-207" value="-expertise: String[]" style="text;strokeColor=none;fillColor=none;align=left;verticalAlign=top;spacingLeft=4;spacingRight=4;overflow=hidden;rotatable=0;points=[[0,0.5],[1,0.5]];portConstraint=eastwest;" parent="oIyaJ22jeFS1HljBoGAg-204" vertex="1">
          <mxGeometry y="89.81818181818181" width="388" height="30" as="geometry" />
        </mxCell>
        <mxCell id="oIyaJ22jeFS1HljBoGAg-208" value="-hourlyRate: Number" style="text;strokeColor=none;fillColor=none;align=left;verticalAlign=top;spacingLeft=4;spacingRight=4;overflow=hidden;rotatable=0;points=[[0,0.5],[1,0.5]];portConstraint=eastwest;" parent="oIyaJ22jeFS1HljBoGAg-204" vertex="1">
          <mxGeometry y="119.81818181818181" width="388" height="30" as="geometry" />
        </mxCell>
        <mxCell id="oIyaJ22jeFS1HljBoGAg-209" value="-availability: Object[]" style="text;strokeColor=none;fillColor=none;align=left;verticalAlign=top;spacingLeft=4;spacingRight=4;overflow=hidden;rotatable=0;points=[[0,0.5],[1,0.5]];portConstraint=eastwest;" parent="oIyaJ22jeFS1HljBoGAg-204" vertex="1">
          <mxGeometry y="149.8181818181818" width="388" height="30" as="geometry" />
        </mxCell>
        <mxCell id="oIyaJ22jeFS1HljBoGAg-210" value="-rating: Number" style="text;strokeColor=none;fillColor=none;align=left;verticalAlign=top;spacingLeft=4;spacingRight=4;overflow=hidden;rotatable=0;points=[[0,0.5],[1,0.5]];portConstraint=eastwest;" parent="oIyaJ22jeFS1HljBoGAg-204" vertex="1">
          <mxGeometry y="179.8181818181818" width="388" height="30" as="geometry" />
        </mxCell>
        <mxCell id="oIyaJ22jeFS1HljBoGAg-211" style="line;strokeWidth=1;fillColor=none;align=left;verticalAlign=middle;spacingTop=-1;spacingLeft=3;spacingRight=3;rotatable=0;labelPosition=right;points=[];portConstraint=eastwest;strokeColor=inherit;" parent="oIyaJ22jeFS1HljBoGAg-204" vertex="1">
          <mxGeometry y="209.8181818181818" width="388" height="8" as="geometry" />
        </mxCell>
        <mxCell id="oIyaJ22jeFS1HljBoGAg-212" value="+createProfile(mentorData: Object) : : Mentor" style="text;strokeColor=none;fillColor=none;align=left;verticalAlign=top;spacingLeft=4;spacingRight=4;overflow=hidden;rotatable=0;points=[[0,0.5],[1,0.5]];portConstraint=eastwest;" parent="oIyaJ22jeFS1HljBoGAg-204" vertex="1">
          <mxGeometry y="217.8181818181818" width="388" height="30" as="geometry" />
        </mxCell>
        <mxCell id="oIyaJ22jeFS1HljBoGAg-213" value="+updateProfile(mentorData: Object) : : Mentor" style="text;strokeColor=none;fillColor=none;align=left;verticalAlign=top;spacingLeft=4;spacingRight=4;overflow=hidden;rotatable=0;points=[[0,0.5],[1,0.5]];portConstraint=eastwest;" parent="oIyaJ22jeFS1HljBoGAg-204" vertex="1">
          <mxGeometry y="247.8181818181818" width="388" height="30" as="geometry" />
        </mxCell>
        <mxCell id="oIyaJ22jeFS1HljBoGAg-214" value="+getAvailability() : : Object[]" style="text;strokeColor=none;fillColor=none;align=left;verticalAlign=top;spacingLeft=4;spacingRight=4;overflow=hidden;rotatable=0;points=[[0,0.5],[1,0.5]];portConstraint=eastwest;" parent="oIyaJ22jeFS1HljBoGAg-204" vertex="1">
          <mxGeometry y="277.8181818181818" width="388" height="30" as="geometry" />
        </mxCell>
        <mxCell id="oIyaJ22jeFS1HljBoGAg-215" value="+updateAvailability(slots: Object[]) : : Boolean" style="text;strokeColor=none;fillColor=none;align=left;verticalAlign=top;spacingLeft=4;spacingRight=4;overflow=hidden;rotatable=0;points=[[0,0.5],[1,0.5]];portConstraint=eastwest;" parent="oIyaJ22jeFS1HljBoGAg-204" vertex="1">
          <mxGeometry y="307.8181818181818" width="388" height="30" as="geometry" />
        </mxCell>
        <mxCell id="oIyaJ22jeFS1HljBoGAg-216" value="Booking" style="swimlane;fontStyle=1;align=center;verticalAlign=top;childLayout=stackLayout;horizontal=1;startSize=29.333333333333332;horizontalStack=0;resizeParent=1;resizeParentMax=0;resizeLast=0;collapsible=0;marginBottom=0;" parent="1" vertex="1">
          <mxGeometry x="2170" y="1308" width="358" height="356.3333333333333" as="geometry" />
        </mxCell>
        <mxCell id="oIyaJ22jeFS1HljBoGAg-217" value="-id: String" style="text;strokeColor=none;fillColor=none;align=left;verticalAlign=top;spacingLeft=4;spacingRight=4;overflow=hidden;rotatable=0;points=[[0,0.5],[1,0.5]];portConstraint=eastwest;" parent="oIyaJ22jeFS1HljBoGAg-216" vertex="1">
          <mxGeometry y="29.333333333333332" width="358" height="29" as="geometry" />
        </mxCell>
        <mxCell id="oIyaJ22jeFS1HljBoGAg-218" value="-mentorId: String" style="text;strokeColor=none;fillColor=none;align=left;verticalAlign=top;spacingLeft=4;spacingRight=4;overflow=hidden;rotatable=0;points=[[0,0.5],[1,0.5]];portConstraint=eastwest;" parent="oIyaJ22jeFS1HljBoGAg-216" vertex="1">
          <mxGeometry y="58.33333333333333" width="358" height="29" as="geometry" />
        </mxCell>
        <mxCell id="oIyaJ22jeFS1HljBoGAg-219" value="-userId: String" style="text;strokeColor=none;fillColor=none;align=left;verticalAlign=top;spacingLeft=4;spacingRight=4;overflow=hidden;rotatable=0;points=[[0,0.5],[1,0.5]];portConstraint=eastwest;" parent="oIyaJ22jeFS1HljBoGAg-216" vertex="1">
          <mxGeometry y="87.33333333333333" width="358" height="29" as="geometry" />
        </mxCell>
        <mxCell id="oIyaJ22jeFS1HljBoGAg-220" value="-startTime: Date" style="text;strokeColor=none;fillColor=none;align=left;verticalAlign=top;spacingLeft=4;spacingRight=4;overflow=hidden;rotatable=0;points=[[0,0.5],[1,0.5]];portConstraint=eastwest;" parent="oIyaJ22jeFS1HljBoGAg-216" vertex="1">
          <mxGeometry y="116.33333333333333" width="358" height="29" as="geometry" />
        </mxCell>
        <mxCell id="oIyaJ22jeFS1HljBoGAg-221" value="-endTime: Date" style="text;strokeColor=none;fillColor=none;align=left;verticalAlign=top;spacingLeft=4;spacingRight=4;overflow=hidden;rotatable=0;points=[[0,0.5],[1,0.5]];portConstraint=eastwest;" parent="oIyaJ22jeFS1HljBoGAg-216" vertex="1">
          <mxGeometry y="145.33333333333331" width="358" height="29" as="geometry" />
        </mxCell>
        <mxCell id="oIyaJ22jeFS1HljBoGAg-222" value="-status: String" style="text;strokeColor=none;fillColor=none;align=left;verticalAlign=top;spacingLeft=4;spacingRight=4;overflow=hidden;rotatable=0;points=[[0,0.5],[1,0.5]];portConstraint=eastwest;" parent="oIyaJ22jeFS1HljBoGAg-216" vertex="1">
          <mxGeometry y="174.33333333333331" width="358" height="29" as="geometry" />
        </mxCell>
        <mxCell id="oIyaJ22jeFS1HljBoGAg-223" value="-roomId: String" style="text;strokeColor=none;fillColor=none;align=left;verticalAlign=top;spacingLeft=4;spacingRight=4;overflow=hidden;rotatable=0;points=[[0,0.5],[1,0.5]];portConstraint=eastwest;" parent="oIyaJ22jeFS1HljBoGAg-216" vertex="1">
          <mxGeometry y="203.33333333333331" width="358" height="29" as="geometry" />
        </mxCell>
        <mxCell id="oIyaJ22jeFS1HljBoGAg-224" style="line;strokeWidth=1;fillColor=none;align=left;verticalAlign=middle;spacingTop=-1;spacingLeft=3;spacingRight=3;rotatable=0;labelPosition=right;points=[];portConstraint=eastwest;strokeColor=inherit;" parent="oIyaJ22jeFS1HljBoGAg-216" vertex="1">
          <mxGeometry y="232.33333333333331" width="358" height="8" as="geometry" />
        </mxCell>
        <mxCell id="oIyaJ22jeFS1HljBoGAg-225" value="+create(bookingData: Object) : : Booking" style="text;strokeColor=none;fillColor=none;align=left;verticalAlign=top;spacingLeft=4;spacingRight=4;overflow=hidden;rotatable=0;points=[[0,0.5],[1,0.5]];portConstraint=eastwest;" parent="oIyaJ22jeFS1HljBoGAg-216" vertex="1">
          <mxGeometry y="240.33333333333331" width="358" height="29" as="geometry" />
        </mxCell>
        <mxCell id="oIyaJ22jeFS1HljBoGAg-226" value="+cancel() : : Boolean" style="text;strokeColor=none;fillColor=none;align=left;verticalAlign=top;spacingLeft=4;spacingRight=4;overflow=hidden;rotatable=0;points=[[0,0.5],[1,0.5]];portConstraint=eastwest;" parent="oIyaJ22jeFS1HljBoGAg-216" vertex="1">
          <mxGeometry y="269.3333333333333" width="358" height="29" as="geometry" />
        </mxCell>
        <mxCell id="oIyaJ22jeFS1HljBoGAg-227" value="+reschedule(newTime: Object) : : Boolean" style="text;strokeColor=none;fillColor=none;align=left;verticalAlign=top;spacingLeft=4;spacingRight=4;overflow=hidden;rotatable=0;points=[[0,0.5],[1,0.5]];portConstraint=eastwest;" parent="oIyaJ22jeFS1HljBoGAg-216" vertex="1">
          <mxGeometry y="298.3333333333333" width="358" height="29" as="geometry" />
        </mxCell>
        <mxCell id="oIyaJ22jeFS1HljBoGAg-228" value="+getDetails() : : Object" style="text;strokeColor=none;fillColor=none;align=left;verticalAlign=top;spacingLeft=4;spacingRight=4;overflow=hidden;rotatable=0;points=[[0,0.5],[1,0.5]];portConstraint=eastwest;" parent="oIyaJ22jeFS1HljBoGAg-216" vertex="1">
          <mxGeometry y="327.3333333333333" width="358" height="29" as="geometry" />
        </mxCell>
        <mxCell id="oIyaJ22jeFS1HljBoGAg-229" value="Room" style="swimlane;fontStyle=1;align=center;verticalAlign=top;childLayout=stackLayout;horizontal=1;startSize=31.11111111111111;horizontalStack=0;resizeParent=1;resizeParentMax=0;resizeLast=0;collapsible=0;marginBottom=0;" parent="1" vertex="1">
          <mxGeometry x="1884" y="1753" width="453" height="287.1111111111111" as="geometry" />
        </mxCell>
        <mxCell id="oIyaJ22jeFS1HljBoGAg-230" value="-id: String" style="text;strokeColor=none;fillColor=none;align=left;verticalAlign=top;spacingLeft=4;spacingRight=4;overflow=hidden;rotatable=0;points=[[0,0.5],[1,0.5]];portConstraint=eastwest;" parent="oIyaJ22jeFS1HljBoGAg-229" vertex="1">
          <mxGeometry y="31.11111111111111" width="453" height="31" as="geometry" />
        </mxCell>
        <mxCell id="oIyaJ22jeFS1HljBoGAg-231" value="-name: String" style="text;strokeColor=none;fillColor=none;align=left;verticalAlign=top;spacingLeft=4;spacingRight=4;overflow=hidden;rotatable=0;points=[[0,0.5],[1,0.5]];portConstraint=eastwest;" parent="oIyaJ22jeFS1HljBoGAg-229" vertex="1">
          <mxGeometry y="62.111111111111114" width="453" height="31" as="geometry" />
        </mxCell>
        <mxCell id="oIyaJ22jeFS1HljBoGAg-232" value="-capacity: Number" style="text;strokeColor=none;fillColor=none;align=left;verticalAlign=top;spacingLeft=4;spacingRight=4;overflow=hidden;rotatable=0;points=[[0,0.5],[1,0.5]];portConstraint=eastwest;" parent="oIyaJ22jeFS1HljBoGAg-229" vertex="1">
          <mxGeometry y="93.11111111111111" width="453" height="31" as="geometry" />
        </mxCell>
        <mxCell id="oIyaJ22jeFS1HljBoGAg-233" value="-features: String[]" style="text;strokeColor=none;fillColor=none;align=left;verticalAlign=top;spacingLeft=4;spacingRight=4;overflow=hidden;rotatable=0;points=[[0,0.5],[1,0.5]];portConstraint=eastwest;" parent="oIyaJ22jeFS1HljBoGAg-229" vertex="1">
          <mxGeometry y="124.11111111111111" width="453" height="31" as="geometry" />
        </mxCell>
        <mxCell id="oIyaJ22jeFS1HljBoGAg-234" value="-availability: Object[]" style="text;strokeColor=none;fillColor=none;align=left;verticalAlign=top;spacingLeft=4;spacingRight=4;overflow=hidden;rotatable=0;points=[[0,0.5],[1,0.5]];portConstraint=eastwest;" parent="oIyaJ22jeFS1HljBoGAg-229" vertex="1">
          <mxGeometry y="155.11111111111111" width="453" height="31" as="geometry" />
        </mxCell>
        <mxCell id="oIyaJ22jeFS1HljBoGAg-235" style="line;strokeWidth=1;fillColor=none;align=left;verticalAlign=middle;spacingTop=-1;spacingLeft=3;spacingRight=3;rotatable=0;labelPosition=right;points=[];portConstraint=eastwest;strokeColor=inherit;" parent="oIyaJ22jeFS1HljBoGAg-229" vertex="1">
          <mxGeometry y="186.11111111111111" width="453" height="8" as="geometry" />
        </mxCell>
        <mxCell id="oIyaJ22jeFS1HljBoGAg-236" value="+isAvailable(startTime: Date, endTime: Date) : : Boolean" style="text;strokeColor=none;fillColor=none;align=left;verticalAlign=top;spacingLeft=4;spacingRight=4;overflow=hidden;rotatable=0;points=[[0,0.5],[1,0.5]];portConstraint=eastwest;" parent="oIyaJ22jeFS1HljBoGAg-229" vertex="1">
          <mxGeometry y="194.11111111111111" width="453" height="31" as="geometry" />
        </mxCell>
        <mxCell id="oIyaJ22jeFS1HljBoGAg-237" value="+book(bookingId: String, time: Object) : : Boolean" style="text;strokeColor=none;fillColor=none;align=left;verticalAlign=top;spacingLeft=4;spacingRight=4;overflow=hidden;rotatable=0;points=[[0,0.5],[1,0.5]];portConstraint=eastwest;" parent="oIyaJ22jeFS1HljBoGAg-229" vertex="1">
          <mxGeometry y="225.11111111111111" width="453" height="31" as="geometry" />
        </mxCell>
        <mxCell id="oIyaJ22jeFS1HljBoGAg-238" value="+getDetails() : : Object" style="text;strokeColor=none;fillColor=none;align=left;verticalAlign=top;spacingLeft=4;spacingRight=4;overflow=hidden;rotatable=0;points=[[0,0.5],[1,0.5]];portConstraint=eastwest;" parent="oIyaJ22jeFS1HljBoGAg-229" vertex="1">
          <mxGeometry y="256.1111111111111" width="453" height="31" as="geometry" />
        </mxCell>
        <mxCell id="oIyaJ22jeFS1HljBoGAg-239" value="Session" style="swimlane;fontStyle=1;align=center;verticalAlign=top;childLayout=stackLayout;horizontal=1;startSize=30.4;horizontalStack=0;resizeParent=1;resizeParentMax=0;resizeLast=0;collapsible=0;marginBottom=0;" parent="1" vertex="1">
          <mxGeometry x="2387" y="1741" width="401" height="308.4" as="geometry" />
        </mxCell>
        <mxCell id="oIyaJ22jeFS1HljBoGAg-240" value="-id: String" style="text;strokeColor=none;fillColor=none;align=left;verticalAlign=top;spacingLeft=4;spacingRight=4;overflow=hidden;rotatable=0;points=[[0,0.5],[1,0.5]];portConstraint=eastwest;" parent="oIyaJ22jeFS1HljBoGAg-239" vertex="1">
          <mxGeometry y="30.4" width="401" height="30" as="geometry" />
        </mxCell>
        <mxCell id="oIyaJ22jeFS1HljBoGAg-241" value="-bookingId: String" style="text;strokeColor=none;fillColor=none;align=left;verticalAlign=top;spacingLeft=4;spacingRight=4;overflow=hidden;rotatable=0;points=[[0,0.5],[1,0.5]];portConstraint=eastwest;" parent="oIyaJ22jeFS1HljBoGAg-239" vertex="1">
          <mxGeometry y="60.4" width="401" height="30" as="geometry" />
        </mxCell>
        <mxCell id="oIyaJ22jeFS1HljBoGAg-242" value="-notes: String" style="text;strokeColor=none;fillColor=none;align=left;verticalAlign=top;spacingLeft=4;spacingRight=4;overflow=hidden;rotatable=0;points=[[0,0.5],[1,0.5]];portConstraint=eastwest;" parent="oIyaJ22jeFS1HljBoGAg-239" vertex="1">
          <mxGeometry y="90.4" width="401" height="30" as="geometry" />
        </mxCell>
        <mxCell id="oIyaJ22jeFS1HljBoGAg-243" value="-materials: String[]" style="text;strokeColor=none;fillColor=none;align=left;verticalAlign=top;spacingLeft=4;spacingRight=4;overflow=hidden;rotatable=0;points=[[0,0.5],[1,0.5]];portConstraint=eastwest;" parent="oIyaJ22jeFS1HljBoGAg-239" vertex="1">
          <mxGeometry y="120.4" width="401" height="30" as="geometry" />
        </mxCell>
        <mxCell id="oIyaJ22jeFS1HljBoGAg-244" value="-feedback: Object" style="text;strokeColor=none;fillColor=none;align=left;verticalAlign=top;spacingLeft=4;spacingRight=4;overflow=hidden;rotatable=0;points=[[0,0.5],[1,0.5]];portConstraint=eastwest;" parent="oIyaJ22jeFS1HljBoGAg-239" vertex="1">
          <mxGeometry y="150.4" width="401" height="30" as="geometry" />
        </mxCell>
        <mxCell id="oIyaJ22jeFS1HljBoGAg-245" style="line;strokeWidth=1;fillColor=none;align=left;verticalAlign=middle;spacingTop=-1;spacingLeft=3;spacingRight=3;rotatable=0;labelPosition=right;points=[];portConstraint=eastwest;strokeColor=inherit;" parent="oIyaJ22jeFS1HljBoGAg-239" vertex="1">
          <mxGeometry y="180.4" width="401" height="8" as="geometry" />
        </mxCell>
        <mxCell id="oIyaJ22jeFS1HljBoGAg-246" value="+create(sessionData: Object) : : Session" style="text;strokeColor=none;fillColor=none;align=left;verticalAlign=top;spacingLeft=4;spacingRight=4;overflow=hidden;rotatable=0;points=[[0,0.5],[1,0.5]];portConstraint=eastwest;" parent="oIyaJ22jeFS1HljBoGAg-239" vertex="1">
          <mxGeometry y="188.4" width="401" height="30" as="geometry" />
        </mxCell>
        <mxCell id="oIyaJ22jeFS1HljBoGAg-247" value="+addNotes(notes: String) : : Boolean" style="text;strokeColor=none;fillColor=none;align=left;verticalAlign=top;spacingLeft=4;spacingRight=4;overflow=hidden;rotatable=0;points=[[0,0.5],[1,0.5]];portConstraint=eastwest;" parent="oIyaJ22jeFS1HljBoGAg-239" vertex="1">
          <mxGeometry y="218.4" width="401" height="30" as="geometry" />
        </mxCell>
        <mxCell id="oIyaJ22jeFS1HljBoGAg-248" value="+addMaterials(materials: String[]) : : Boolean" style="text;strokeColor=none;fillColor=none;align=left;verticalAlign=top;spacingLeft=4;spacingRight=4;overflow=hidden;rotatable=0;points=[[0,0.5],[1,0.5]];portConstraint=eastwest;" parent="oIyaJ22jeFS1HljBoGAg-239" vertex="1">
          <mxGeometry y="248.4" width="401" height="30" as="geometry" />
        </mxCell>
        <mxCell id="oIyaJ22jeFS1HljBoGAg-249" value="+provideFeedback(feedback: Object) : : Boolean" style="text;strokeColor=none;fillColor=none;align=left;verticalAlign=top;spacingLeft=4;spacingRight=4;overflow=hidden;rotatable=0;points=[[0,0.5],[1,0.5]];portConstraint=eastwest;" parent="oIyaJ22jeFS1HljBoGAg-239" vertex="1">
          <mxGeometry y="278.4" width="401" height="30" as="geometry" />
        </mxCell>
        <mxCell id="oIyaJ22jeFS1HljBoGAg-250" value="Notification" style="swimlane;fontStyle=1;align=center;verticalAlign=top;childLayout=stackLayout;horizontal=1;startSize=30.4;horizontalStack=0;resizeParent=1;resizeParentMax=0;resizeLast=0;collapsible=0;marginBottom=0;" parent="1" vertex="1">
          <mxGeometry x="221" y="911" width="421" height="308.4" as="geometry" />
        </mxCell>
        <mxCell id="oIyaJ22jeFS1HljBoGAg-251" value="-id: String" style="text;strokeColor=none;fillColor=none;align=left;verticalAlign=top;spacingLeft=4;spacingRight=4;overflow=hidden;rotatable=0;points=[[0,0.5],[1,0.5]];portConstraint=eastwest;" parent="oIyaJ22jeFS1HljBoGAg-250" vertex="1">
          <mxGeometry y="30.4" width="421" height="30" as="geometry" />
        </mxCell>
        <mxCell id="oIyaJ22jeFS1HljBoGAg-252" value="-userId: String" style="text;strokeColor=none;fillColor=none;align=left;verticalAlign=top;spacingLeft=4;spacingRight=4;overflow=hidden;rotatable=0;points=[[0,0.5],[1,0.5]];portConstraint=eastwest;" parent="oIyaJ22jeFS1HljBoGAg-250" vertex="1">
          <mxGeometry y="60.4" width="421" height="30" as="geometry" />
        </mxCell>
        <mxCell id="oIyaJ22jeFS1HljBoGAg-253" value="-message: String" style="text;strokeColor=none;fillColor=none;align=left;verticalAlign=top;spacingLeft=4;spacingRight=4;overflow=hidden;rotatable=0;points=[[0,0.5],[1,0.5]];portConstraint=eastwest;" parent="oIyaJ22jeFS1HljBoGAg-250" vertex="1">
          <mxGeometry y="90.4" width="421" height="30" as="geometry" />
        </mxCell>
        <mxCell id="oIyaJ22jeFS1HljBoGAg-254" value="-type: String" style="text;strokeColor=none;fillColor=none;align=left;verticalAlign=top;spacingLeft=4;spacingRight=4;overflow=hidden;rotatable=0;points=[[0,0.5],[1,0.5]];portConstraint=eastwest;" parent="oIyaJ22jeFS1HljBoGAg-250" vertex="1">
          <mxGeometry y="120.4" width="421" height="30" as="geometry" />
        </mxCell>
        <mxCell id="oIyaJ22jeFS1HljBoGAg-255" value="-read: Boolean" style="text;strokeColor=none;fillColor=none;align=left;verticalAlign=top;spacingLeft=4;spacingRight=4;overflow=hidden;rotatable=0;points=[[0,0.5],[1,0.5]];portConstraint=eastwest;" parent="oIyaJ22jeFS1HljBoGAg-250" vertex="1">
          <mxGeometry y="150.4" width="421" height="30" as="geometry" />
        </mxCell>
        <mxCell id="oIyaJ22jeFS1HljBoGAg-256" value="-createdAt: Date" style="text;strokeColor=none;fillColor=none;align=left;verticalAlign=top;spacingLeft=4;spacingRight=4;overflow=hidden;rotatable=0;points=[[0,0.5],[1,0.5]];portConstraint=eastwest;" parent="oIyaJ22jeFS1HljBoGAg-250" vertex="1">
          <mxGeometry y="180.4" width="421" height="30" as="geometry" />
        </mxCell>
        <mxCell id="oIyaJ22jeFS1HljBoGAg-257" style="line;strokeWidth=1;fillColor=none;align=left;verticalAlign=middle;spacingTop=-1;spacingLeft=3;spacingRight=3;rotatable=0;labelPosition=right;points=[];portConstraint=eastwest;strokeColor=inherit;" parent="oIyaJ22jeFS1HljBoGAg-250" vertex="1">
          <mxGeometry y="210.4" width="421" height="8" as="geometry" />
        </mxCell>
        <mxCell id="oIyaJ22jeFS1HljBoGAg-258" value="+create(notificationData: Object) : : Notification" style="text;strokeColor=none;fillColor=none;align=left;verticalAlign=top;spacingLeft=4;spacingRight=4;overflow=hidden;rotatable=0;points=[[0,0.5],[1,0.5]];portConstraint=eastwest;" parent="oIyaJ22jeFS1HljBoGAg-250" vertex="1">
          <mxGeometry y="218.4" width="421" height="30" as="geometry" />
        </mxCell>
        <mxCell id="oIyaJ22jeFS1HljBoGAg-259" value="+markAsRead() : : Boolean" style="text;strokeColor=none;fillColor=none;align=left;verticalAlign=top;spacingLeft=4;spacingRight=4;overflow=hidden;rotatable=0;points=[[0,0.5],[1,0.5]];portConstraint=eastwest;" parent="oIyaJ22jeFS1HljBoGAg-250" vertex="1">
          <mxGeometry y="248.4" width="421" height="30" as="geometry" />
        </mxCell>
        <mxCell id="oIyaJ22jeFS1HljBoGAg-260" value="+getAll(userId: String) : : Notification[]" style="text;strokeColor=none;fillColor=none;align=left;verticalAlign=top;spacingLeft=4;spacingRight=4;overflow=hidden;rotatable=0;points=[[0,0.5],[1,0.5]];portConstraint=eastwest;" parent="oIyaJ22jeFS1HljBoGAg-250" vertex="1">
          <mxGeometry y="278.4" width="421" height="30" as="geometry" />
        </mxCell>
        <mxCell id="oIyaJ22jeFS1HljBoGAg-261" value="HelpRequest" style="swimlane;fontStyle=1;align=center;verticalAlign=top;childLayout=stackLayout;horizontal=1;startSize=31.11111111111111;horizontalStack=0;resizeParent=1;resizeParentMax=0;resizeLast=0;collapsible=0;marginBottom=0;" parent="1" vertex="1">
          <mxGeometry x="1211" y="923" width="400" height="287.1111111111111" as="geometry" />
        </mxCell>
        <mxCell id="oIyaJ22jeFS1HljBoGAg-262" value="-id: String" style="text;strokeColor=none;fillColor=none;align=left;verticalAlign=top;spacingLeft=4;spacingRight=4;overflow=hidden;rotatable=0;points=[[0,0.5],[1,0.5]];portConstraint=eastwest;" parent="oIyaJ22jeFS1HljBoGAg-261" vertex="1">
          <mxGeometry y="31.11111111111111" width="400" height="31" as="geometry" />
        </mxCell>
        <mxCell id="oIyaJ22jeFS1HljBoGAg-263" value="-userId: String" style="text;strokeColor=none;fillColor=none;align=left;verticalAlign=top;spacingLeft=4;spacingRight=4;overflow=hidden;rotatable=0;points=[[0,0.5],[1,0.5]];portConstraint=eastwest;" parent="oIyaJ22jeFS1HljBoGAg-261" vertex="1">
          <mxGeometry y="62.111111111111114" width="400" height="31" as="geometry" />
        </mxCell>
        <mxCell id="oIyaJ22jeFS1HljBoGAg-264" value="-issue: String" style="text;strokeColor=none;fillColor=none;align=left;verticalAlign=top;spacingLeft=4;spacingRight=4;overflow=hidden;rotatable=0;points=[[0,0.5],[1,0.5]];portConstraint=eastwest;" parent="oIyaJ22jeFS1HljBoGAg-261" vertex="1">
          <mxGeometry y="93.11111111111111" width="400" height="31" as="geometry" />
        </mxCell>
        <mxCell id="oIyaJ22jeFS1HljBoGAg-265" value="-status: String" style="text;strokeColor=none;fillColor=none;align=left;verticalAlign=top;spacingLeft=4;spacingRight=4;overflow=hidden;rotatable=0;points=[[0,0.5],[1,0.5]];portConstraint=eastwest;" parent="oIyaJ22jeFS1HljBoGAg-261" vertex="1">
          <mxGeometry y="124.11111111111111" width="400" height="31" as="geometry" />
        </mxCell>
        <mxCell id="oIyaJ22jeFS1HljBoGAg-266" value="-createdAt: Date" style="text;strokeColor=none;fillColor=none;align=left;verticalAlign=top;spacingLeft=4;spacingRight=4;overflow=hidden;rotatable=0;points=[[0,0.5],[1,0.5]];portConstraint=eastwest;" parent="oIyaJ22jeFS1HljBoGAg-261" vertex="1">
          <mxGeometry y="155.11111111111111" width="400" height="31" as="geometry" />
        </mxCell>
        <mxCell id="oIyaJ22jeFS1HljBoGAg-267" style="line;strokeWidth=1;fillColor=none;align=left;verticalAlign=middle;spacingTop=-1;spacingLeft=3;spacingRight=3;rotatable=0;labelPosition=right;points=[];portConstraint=eastwest;strokeColor=inherit;" parent="oIyaJ22jeFS1HljBoGAg-261" vertex="1">
          <mxGeometry y="186.11111111111111" width="400" height="8" as="geometry" />
        </mxCell>
        <mxCell id="oIyaJ22jeFS1HljBoGAg-268" value="+create(requestData: Object) : : HelpRequest" style="text;strokeColor=none;fillColor=none;align=left;verticalAlign=top;spacingLeft=4;spacingRight=4;overflow=hidden;rotatable=0;points=[[0,0.5],[1,0.5]];portConstraint=eastwest;" parent="oIyaJ22jeFS1HljBoGAg-261" vertex="1">
          <mxGeometry y="194.11111111111111" width="400" height="31" as="geometry" />
        </mxCell>
        <mxCell id="oIyaJ22jeFS1HljBoGAg-269" value="+updateStatus(status: String) : : Boolean" style="text;strokeColor=none;fillColor=none;align=left;verticalAlign=top;spacingLeft=4;spacingRight=4;overflow=hidden;rotatable=0;points=[[0,0.5],[1,0.5]];portConstraint=eastwest;" parent="oIyaJ22jeFS1HljBoGAg-261" vertex="1">
          <mxGeometry y="225.11111111111111" width="400" height="31" as="geometry" />
        </mxCell>
        <mxCell id="oIyaJ22jeFS1HljBoGAg-270" value="+getDetails() : : Object" style="text;strokeColor=none;fillColor=none;align=left;verticalAlign=top;spacingLeft=4;spacingRight=4;overflow=hidden;rotatable=0;points=[[0,0.5],[1,0.5]];portConstraint=eastwest;" parent="oIyaJ22jeFS1HljBoGAg-261" vertex="1">
          <mxGeometry y="256.1111111111111" width="400" height="31" as="geometry" />
        </mxCell>
        <mxCell id="oIyaJ22jeFS1HljBoGAg-271" value="AuthController" style="swimlane;fontStyle=1;align=center;verticalAlign=top;childLayout=stackLayout;horizontal=1;startSize=34.54545454545455;horizontalStack=0;resizeParent=1;resizeParentMax=0;resizeLast=0;collapsible=0;marginBottom=0;" parent="1" vertex="1">
          <mxGeometry x="512" y="243" width="492" height="182.54545454545456" as="geometry" />
        </mxCell>
        <mxCell id="oIyaJ22jeFS1HljBoGAg-272" style="line;strokeWidth=1;fillColor=none;align=left;verticalAlign=middle;spacingTop=-1;spacingLeft=3;spacingRight=3;rotatable=0;labelPosition=right;points=[];portConstraint=eastwest;strokeColor=inherit;" parent="oIyaJ22jeFS1HljBoGAg-271" vertex="1">
          <mxGeometry y="34.54545454545455" width="492" height="8" as="geometry" />
        </mxCell>
        <mxCell id="oIyaJ22jeFS1HljBoGAg-273" value="+register(req: Request, res: Response) : : Response" style="text;strokeColor=none;fillColor=none;align=left;verticalAlign=top;spacingLeft=4;spacingRight=4;overflow=hidden;rotatable=0;points=[[0,0.5],[1,0.5]];portConstraint=eastwest;" parent="oIyaJ22jeFS1HljBoGAg-271" vertex="1">
          <mxGeometry y="42.54545454545455" width="492" height="35" as="geometry" />
        </mxCell>
        <mxCell id="oIyaJ22jeFS1HljBoGAg-274" value="+login(req: Request, res: Response) : : Response" style="text;strokeColor=none;fillColor=none;align=left;verticalAlign=top;spacingLeft=4;spacingRight=4;overflow=hidden;rotatable=0;points=[[0,0.5],[1,0.5]];portConstraint=eastwest;" parent="oIyaJ22jeFS1HljBoGAg-271" vertex="1">
          <mxGeometry y="77.54545454545455" width="492" height="35" as="geometry" />
        </mxCell>
        <mxCell id="oIyaJ22jeFS1HljBoGAg-275" value="+logout(req: Request, res: Response) : : Response" style="text;strokeColor=none;fillColor=none;align=left;verticalAlign=top;spacingLeft=4;spacingRight=4;overflow=hidden;rotatable=0;points=[[0,0.5],[1,0.5]];portConstraint=eastwest;" parent="oIyaJ22jeFS1HljBoGAg-271" vertex="1">
          <mxGeometry y="112.54545454545455" width="492" height="35" as="geometry" />
        </mxCell>
        <mxCell id="oIyaJ22jeFS1HljBoGAg-276" value="+resetPassword(req: Request, res: Response) : : Response" style="text;strokeColor=none;fillColor=none;align=left;verticalAlign=top;spacingLeft=4;spacingRight=4;overflow=hidden;rotatable=0;points=[[0,0.5],[1,0.5]];portConstraint=eastwest;" parent="oIyaJ22jeFS1HljBoGAg-271" vertex="1">
          <mxGeometry y="147.54545454545456" width="492" height="35" as="geometry" />
        </mxCell>
        <mxCell id="oIyaJ22jeFS1HljBoGAg-277" value="UserController" style="swimlane;fontStyle=1;align=center;verticalAlign=top;childLayout=stackLayout;horizontal=1;startSize=34.54545454545455;horizontalStack=0;resizeParent=1;resizeParentMax=0;resizeLast=0;collapsible=0;marginBottom=0;" parent="1" vertex="1">
          <mxGeometry x="1054" y="243" width="487" height="182.54545454545456" as="geometry" />
        </mxCell>
        <mxCell id="oIyaJ22jeFS1HljBoGAg-278" style="line;strokeWidth=1;fillColor=none;align=left;verticalAlign=middle;spacingTop=-1;spacingLeft=3;spacingRight=3;rotatable=0;labelPosition=right;points=[];portConstraint=eastwest;strokeColor=inherit;" parent="oIyaJ22jeFS1HljBoGAg-277" vertex="1">
          <mxGeometry y="34.54545454545455" width="487" height="8" as="geometry" />
        </mxCell>
        <mxCell id="oIyaJ22jeFS1HljBoGAg-279" value="+getProfile(req: Request, res: Response) : : Response" style="text;strokeColor=none;fillColor=none;align=left;verticalAlign=top;spacingLeft=4;spacingRight=4;overflow=hidden;rotatable=0;points=[[0,0.5],[1,0.5]];portConstraint=eastwest;" parent="oIyaJ22jeFS1HljBoGAg-277" vertex="1">
          <mxGeometry y="42.54545454545455" width="487" height="35" as="geometry" />
        </mxCell>
        <mxCell id="oIyaJ22jeFS1HljBoGAg-280" value="+updateProfile(req: Request, res: Response) : : Response" style="text;strokeColor=none;fillColor=none;align=left;verticalAlign=top;spacingLeft=4;spacingRight=4;overflow=hidden;rotatable=0;points=[[0,0.5],[1,0.5]];portConstraint=eastwest;" parent="oIyaJ22jeFS1HljBoGAg-277" vertex="1">
          <mxGeometry y="77.54545454545455" width="487" height="35" as="geometry" />
        </mxCell>
        <mxCell id="oIyaJ22jeFS1HljBoGAg-281" value="+getUsers(req: Request, res: Response) : : Response" style="text;strokeColor=none;fillColor=none;align=left;verticalAlign=top;spacingLeft=4;spacingRight=4;overflow=hidden;rotatable=0;points=[[0,0.5],[1,0.5]];portConstraint=eastwest;" parent="oIyaJ22jeFS1HljBoGAg-277" vertex="1">
          <mxGeometry y="112.54545454545455" width="487" height="35" as="geometry" />
        </mxCell>
        <mxCell id="oIyaJ22jeFS1HljBoGAg-282" value="+deleteUser(req: Request, res: Response) : : Response" style="text;strokeColor=none;fillColor=none;align=left;verticalAlign=top;spacingLeft=4;spacingRight=4;overflow=hidden;rotatable=0;points=[[0,0.5],[1,0.5]];portConstraint=eastwest;" parent="oIyaJ22jeFS1HljBoGAg-277" vertex="1">
          <mxGeometry y="147.54545454545456" width="487" height="35" as="geometry" />
        </mxCell>
        <mxCell id="oIyaJ22jeFS1HljBoGAg-283" value="SearchController" style="swimlane;fontStyle=1;align=center;verticalAlign=top;childLayout=stackLayout;horizontal=1;startSize=36.888888888888886;horizontalStack=0;resizeParent=1;resizeParentMax=0;resizeLast=0;collapsible=0;marginBottom=0;" parent="1" vertex="1">
          <mxGeometry x="2075" y="583" width="549" height="155.88888888888889" as="geometry" />
        </mxCell>
        <mxCell id="oIyaJ22jeFS1HljBoGAg-284" style="line;strokeWidth=1;fillColor=none;align=left;verticalAlign=middle;spacingTop=-1;spacingLeft=3;spacingRight=3;rotatable=0;labelPosition=right;points=[];portConstraint=eastwest;strokeColor=inherit;" parent="oIyaJ22jeFS1HljBoGAg-283" vertex="1">
          <mxGeometry y="36.888888888888886" width="549" height="8" as="geometry" />
        </mxCell>
        <mxCell id="oIyaJ22jeFS1HljBoGAg-285" value="+searchMentors(req: Request, res: Response) : : Response" style="text;strokeColor=none;fillColor=none;align=left;verticalAlign=top;spacingLeft=4;spacingRight=4;overflow=hidden;rotatable=0;points=[[0,0.5],[1,0.5]];portConstraint=eastwest;" parent="oIyaJ22jeFS1HljBoGAg-283" vertex="1">
          <mxGeometry y="44.888888888888886" width="549" height="37" as="geometry" />
        </mxCell>
        <mxCell id="oIyaJ22jeFS1HljBoGAg-286" value="+getFilterOptions(req: Request, res: Response) : : Response" style="text;strokeColor=none;fillColor=none;align=left;verticalAlign=top;spacingLeft=4;spacingRight=4;overflow=hidden;rotatable=0;points=[[0,0.5],[1,0.5]];portConstraint=eastwest;" parent="oIyaJ22jeFS1HljBoGAg-283" vertex="1">
          <mxGeometry y="81.88888888888889" width="549" height="37" as="geometry" />
        </mxCell>
        <mxCell id="oIyaJ22jeFS1HljBoGAg-287" value="+getSuggestedMentors(req: Request, res: Response) : : Response" style="text;strokeColor=none;fillColor=none;align=left;verticalAlign=top;spacingLeft=4;spacingRight=4;overflow=hidden;rotatable=0;points=[[0,0.5],[1,0.5]];portConstraint=eastwest;" parent="oIyaJ22jeFS1HljBoGAg-283" vertex="1">
          <mxGeometry y="118.88888888888889" width="549" height="37" as="geometry" />
        </mxCell>
        <mxCell id="oIyaJ22jeFS1HljBoGAg-288" value="BookingController" style="swimlane;fontStyle=1;align=center;verticalAlign=top;childLayout=stackLayout;horizontal=1;startSize=34.54545454545455;horizontalStack=0;resizeParent=1;resizeParentMax=0;resizeLast=0;collapsible=0;marginBottom=0;" parent="1" vertex="1">
          <mxGeometry x="3453" y="968" width="536" height="182.54545454545456" as="geometry" />
        </mxCell>
        <mxCell id="oIyaJ22jeFS1HljBoGAg-289" style="line;strokeWidth=1;fillColor=none;align=left;verticalAlign=middle;spacingTop=-1;spacingLeft=3;spacingRight=3;rotatable=0;labelPosition=right;points=[];portConstraint=eastwest;strokeColor=inherit;" parent="oIyaJ22jeFS1HljBoGAg-288" vertex="1">
          <mxGeometry y="34.54545454545455" width="536" height="8" as="geometry" />
        </mxCell>
        <mxCell id="oIyaJ22jeFS1HljBoGAg-290" value="+createBooking(req: Request, res: Response) : : Response" style="text;strokeColor=none;fillColor=none;align=left;verticalAlign=top;spacingLeft=4;spacingRight=4;overflow=hidden;rotatable=0;points=[[0,0.5],[1,0.5]];portConstraint=eastwest;" parent="oIyaJ22jeFS1HljBoGAg-288" vertex="1">
          <mxGeometry y="42.54545454545455" width="536" height="35" as="geometry" />
        </mxCell>
        <mxCell id="oIyaJ22jeFS1HljBoGAg-291" value="+getBookings(req: Request, res: Response) : : Response" style="text;strokeColor=none;fillColor=none;align=left;verticalAlign=top;spacingLeft=4;spacingRight=4;overflow=hidden;rotatable=0;points=[[0,0.5],[1,0.5]];portConstraint=eastwest;" parent="oIyaJ22jeFS1HljBoGAg-288" vertex="1">
          <mxGeometry y="77.54545454545455" width="536" height="35" as="geometry" />
        </mxCell>
        <mxCell id="oIyaJ22jeFS1HljBoGAg-292" value="+cancelBooking(req: Request, res: Response) : : Response" style="text;strokeColor=none;fillColor=none;align=left;verticalAlign=top;spacingLeft=4;spacingRight=4;overflow=hidden;rotatable=0;points=[[0,0.5],[1,0.5]];portConstraint=eastwest;" parent="oIyaJ22jeFS1HljBoGAg-288" vertex="1">
          <mxGeometry y="112.54545454545455" width="536" height="35" as="geometry" />
        </mxCell>
        <mxCell id="oIyaJ22jeFS1HljBoGAg-293" value="+rescheduleBooking(req: Request, res: Response) : : Response" style="text;strokeColor=none;fillColor=none;align=left;verticalAlign=top;spacingLeft=4;spacingRight=4;overflow=hidden;rotatable=0;points=[[0,0.5],[1,0.5]];portConstraint=eastwest;" parent="oIyaJ22jeFS1HljBoGAg-288" vertex="1">
          <mxGeometry y="147.54545454545456" width="536" height="35" as="geometry" />
        </mxCell>
        <mxCell id="oIyaJ22jeFS1HljBoGAg-294" value="CalendarController" style="swimlane;fontStyle=1;align=center;verticalAlign=top;childLayout=stackLayout;horizontal=1;startSize=36.888888888888886;horizontalStack=0;resizeParent=1;resizeParentMax=0;resizeLast=0;collapsible=0;marginBottom=0;" parent="1" vertex="1">
          <mxGeometry x="2674" y="583" width="536" height="155.88888888888889" as="geometry" />
        </mxCell>
        <mxCell id="oIyaJ22jeFS1HljBoGAg-295" style="line;strokeWidth=1;fillColor=none;align=left;verticalAlign=middle;spacingTop=-1;spacingLeft=3;spacingRight=3;rotatable=0;labelPosition=right;points=[];portConstraint=eastwest;strokeColor=inherit;" parent="oIyaJ22jeFS1HljBoGAg-294" vertex="1">
          <mxGeometry y="36.888888888888886" width="536" height="8" as="geometry" />
        </mxCell>
        <mxCell id="oIyaJ22jeFS1HljBoGAg-296" value="+getAvailability(req: Request, res: Response) : : Response" style="text;strokeColor=none;fillColor=none;align=left;verticalAlign=top;spacingLeft=4;spacingRight=4;overflow=hidden;rotatable=0;points=[[0,0.5],[1,0.5]];portConstraint=eastwest;" parent="oIyaJ22jeFS1HljBoGAg-294" vertex="1">
          <mxGeometry y="44.888888888888886" width="536" height="37" as="geometry" />
        </mxCell>
        <mxCell id="oIyaJ22jeFS1HljBoGAg-297" value="+updateAvailability(req: Request, res: Response) : : Response" style="text;strokeColor=none;fillColor=none;align=left;verticalAlign=top;spacingLeft=4;spacingRight=4;overflow=hidden;rotatable=0;points=[[0,0.5],[1,0.5]];portConstraint=eastwest;" parent="oIyaJ22jeFS1HljBoGAg-294" vertex="1">
          <mxGeometry y="81.88888888888889" width="536" height="37" as="geometry" />
        </mxCell>
        <mxCell id="oIyaJ22jeFS1HljBoGAg-298" value="+getSessions(req: Request, res: Response) : : Response" style="text;strokeColor=none;fillColor=none;align=left;verticalAlign=top;spacingLeft=4;spacingRight=4;overflow=hidden;rotatable=0;points=[[0,0.5],[1,0.5]];portConstraint=eastwest;" parent="oIyaJ22jeFS1HljBoGAg-294" vertex="1">
          <mxGeometry y="118.88888888888889" width="536" height="37" as="geometry" />
        </mxCell>
        <mxCell id="oIyaJ22jeFS1HljBoGAg-299" value="NotificationController" style="swimlane;fontStyle=1;align=center;verticalAlign=top;childLayout=stackLayout;horizontal=1;startSize=36.888888888888886;horizontalStack=0;resizeParent=1;resizeParentMax=0;resizeLast=0;collapsible=0;marginBottom=0;" parent="1" vertex="1">
          <mxGeometry x="20" y="583" width="548" height="155.88888888888889" as="geometry" />
        </mxCell>
        <mxCell id="oIyaJ22jeFS1HljBoGAg-300" style="line;strokeWidth=1;fillColor=none;align=left;verticalAlign=middle;spacingTop=-1;spacingLeft=3;spacingRight=3;rotatable=0;labelPosition=right;points=[];portConstraint=eastwest;strokeColor=inherit;" parent="oIyaJ22jeFS1HljBoGAg-299" vertex="1">
          <mxGeometry y="36.888888888888886" width="548" height="8" as="geometry" />
        </mxCell>
        <mxCell id="oIyaJ22jeFS1HljBoGAg-301" value="+createNotification(req: Request, res: Response) : : Response" style="text;strokeColor=none;fillColor=none;align=left;verticalAlign=top;spacingLeft=4;spacingRight=4;overflow=hidden;rotatable=0;points=[[0,0.5],[1,0.5]];portConstraint=eastwest;" parent="oIyaJ22jeFS1HljBoGAg-299" vertex="1">
          <mxGeometry y="44.888888888888886" width="548" height="37" as="geometry" />
        </mxCell>
        <mxCell id="oIyaJ22jeFS1HljBoGAg-302" value="+getNotifications(req: Request, res: Response) : : Response" style="text;strokeColor=none;fillColor=none;align=left;verticalAlign=top;spacingLeft=4;spacingRight=4;overflow=hidden;rotatable=0;points=[[0,0.5],[1,0.5]];portConstraint=eastwest;" parent="oIyaJ22jeFS1HljBoGAg-299" vertex="1">
          <mxGeometry y="81.88888888888889" width="548" height="37" as="geometry" />
        </mxCell>
        <mxCell id="oIyaJ22jeFS1HljBoGAg-303" value="+markAsRead(req: Request, res: Response) : : Response" style="text;strokeColor=none;fillColor=none;align=left;verticalAlign=top;spacingLeft=4;spacingRight=4;overflow=hidden;rotatable=0;points=[[0,0.5],[1,0.5]];portConstraint=eastwest;" parent="oIyaJ22jeFS1HljBoGAg-299" vertex="1">
          <mxGeometry y="118.88888888888889" width="548" height="37" as="geometry" />
        </mxCell>
        <mxCell id="oIyaJ22jeFS1HljBoGAg-304" value="HelpController" style="swimlane;fontStyle=1;align=center;verticalAlign=top;childLayout=stackLayout;horizontal=1;startSize=36.888888888888886;horizontalStack=0;resizeParent=1;resizeParentMax=0;resizeLast=0;collapsible=0;marginBottom=0;" parent="1" vertex="1">
          <mxGeometry x="1484" y="583" width="541" height="155.88888888888889" as="geometry" />
        </mxCell>
        <mxCell id="oIyaJ22jeFS1HljBoGAg-305" style="line;strokeWidth=1;fillColor=none;align=left;verticalAlign=middle;spacingTop=-1;spacingLeft=3;spacingRight=3;rotatable=0;labelPosition=right;points=[];portConstraint=eastwest;strokeColor=inherit;" parent="oIyaJ22jeFS1HljBoGAg-304" vertex="1">
          <mxGeometry y="36.888888888888886" width="541" height="8" as="geometry" />
        </mxCell>
        <mxCell id="oIyaJ22jeFS1HljBoGAg-306" value="+createRequest(req: Request, res: Response) : : Response" style="text;strokeColor=none;fillColor=none;align=left;verticalAlign=top;spacingLeft=4;spacingRight=4;overflow=hidden;rotatable=0;points=[[0,0.5],[1,0.5]];portConstraint=eastwest;" parent="oIyaJ22jeFS1HljBoGAg-304" vertex="1">
          <mxGeometry y="44.888888888888886" width="541" height="37" as="geometry" />
        </mxCell>
        <mxCell id="oIyaJ22jeFS1HljBoGAg-307" value="+getRequests(req: Request, res: Response) : : Response" style="text;strokeColor=none;fillColor=none;align=left;verticalAlign=top;spacingLeft=4;spacingRight=4;overflow=hidden;rotatable=0;points=[[0,0.5],[1,0.5]];portConstraint=eastwest;" parent="oIyaJ22jeFS1HljBoGAg-304" vertex="1">
          <mxGeometry y="81.88888888888889" width="541" height="37" as="geometry" />
        </mxCell>
        <mxCell id="oIyaJ22jeFS1HljBoGAg-308" value="+updateRequestStatus(req: Request, res: Response) : : Response" style="text;strokeColor=none;fillColor=none;align=left;verticalAlign=top;spacingLeft=4;spacingRight=4;overflow=hidden;rotatable=0;points=[[0,0.5],[1,0.5]];portConstraint=eastwest;" parent="oIyaJ22jeFS1HljBoGAg-304" vertex="1">
          <mxGeometry y="118.88888888888889" width="541" height="37" as="geometry" />
        </mxCell>
        <mxCell id="oIyaJ22jeFS1HljBoGAg-309" value="LoginRegisterPage" style="swimlane;fontStyle=1;align=center;verticalAlign=top;childLayout=stackLayout;horizontal=1;startSize=40.57142857142857;horizontalStack=0;resizeParent=1;resizeParentMax=0;resizeLast=0;collapsible=0;marginBottom=0;" parent="1" vertex="1">
          <mxGeometry x="625" y="20" width="266" height="130.57142857142856" as="geometry" />
        </mxCell>
        <mxCell id="oIyaJ22jeFS1HljBoGAg-310" style="line;strokeWidth=1;fillColor=none;align=left;verticalAlign=middle;spacingTop=-1;spacingLeft=3;spacingRight=3;rotatable=0;labelPosition=right;points=[];portConstraint=eastwest;strokeColor=inherit;" parent="oIyaJ22jeFS1HljBoGAg-309" vertex="1">
          <mxGeometry y="40.57142857142857" width="266" height="8" as="geometry" />
        </mxCell>
        <mxCell id="oIyaJ22jeFS1HljBoGAg-311" value="+render() : : void" style="text;strokeColor=none;fillColor=none;align=left;verticalAlign=top;spacingLeft=4;spacingRight=4;overflow=hidden;rotatable=0;points=[[0,0.5],[1,0.5]];portConstraint=eastwest;" parent="oIyaJ22jeFS1HljBoGAg-309" vertex="1">
          <mxGeometry y="48.57142857142857" width="266" height="41" as="geometry" />
        </mxCell>
        <mxCell id="oIyaJ22jeFS1HljBoGAg-312" value="+handleSubmit() : : void" style="text;strokeColor=none;fillColor=none;align=left;verticalAlign=top;spacingLeft=4;spacingRight=4;overflow=hidden;rotatable=0;points=[[0,0.5],[1,0.5]];portConstraint=eastwest;" parent="oIyaJ22jeFS1HljBoGAg-309" vertex="1">
          <mxGeometry y="89.57142857142857" width="266" height="41" as="geometry" />
        </mxCell>
        <mxCell id="oIyaJ22jeFS1HljBoGAg-313" value="DashboardPage" style="swimlane;fontStyle=1;align=center;verticalAlign=top;childLayout=stackLayout;horizontal=1;startSize=40.57142857142857;horizontalStack=0;resizeParent=1;resizeParentMax=0;resizeLast=0;collapsible=0;marginBottom=0;" parent="1" vertex="1">
          <mxGeometry x="1157" y="20" width="281" height="130.57142857142856" as="geometry" />
        </mxCell>
        <mxCell id="oIyaJ22jeFS1HljBoGAg-314" style="line;strokeWidth=1;fillColor=none;align=left;verticalAlign=middle;spacingTop=-1;spacingLeft=3;spacingRight=3;rotatable=0;labelPosition=right;points=[];portConstraint=eastwest;strokeColor=inherit;" parent="oIyaJ22jeFS1HljBoGAg-313" vertex="1">
          <mxGeometry y="40.57142857142857" width="281" height="8" as="geometry" />
        </mxCell>
        <mxCell id="oIyaJ22jeFS1HljBoGAg-315" value="+render() : : void" style="text;strokeColor=none;fillColor=none;align=left;verticalAlign=top;spacingLeft=4;spacingRight=4;overflow=hidden;rotatable=0;points=[[0,0.5],[1,0.5]];portConstraint=eastwest;" parent="oIyaJ22jeFS1HljBoGAg-313" vertex="1">
          <mxGeometry y="48.57142857142857" width="281" height="41" as="geometry" />
        </mxCell>
        <mxCell id="oIyaJ22jeFS1HljBoGAg-316" value="+navigateToSearch() : : void" style="text;strokeColor=none;fillColor=none;align=left;verticalAlign=top;spacingLeft=4;spacingRight=4;overflow=hidden;rotatable=0;points=[[0,0.5],[1,0.5]];portConstraint=eastwest;" parent="oIyaJ22jeFS1HljBoGAg-313" vertex="1">
          <mxGeometry y="89.57142857142857" width="281" height="41" as="geometry" />
        </mxCell>
        <mxCell id="oIyaJ22jeFS1HljBoGAg-317" value="MentorBrowsePage" style="swimlane;fontStyle=1;align=center;verticalAlign=top;childLayout=stackLayout;horizontal=1;startSize=36.888888888888886;horizontalStack=0;resizeParent=1;resizeParentMax=0;resizeLast=0;collapsible=0;marginBottom=0;" parent="1" vertex="1">
          <mxGeometry x="2216" y="255" width="267" height="155.88888888888889" as="geometry" />
        </mxCell>
        <mxCell id="oIyaJ22jeFS1HljBoGAg-318" style="line;strokeWidth=1;fillColor=none;align=left;verticalAlign=middle;spacingTop=-1;spacingLeft=3;spacingRight=3;rotatable=0;labelPosition=right;points=[];portConstraint=eastwest;strokeColor=inherit;" parent="oIyaJ22jeFS1HljBoGAg-317" vertex="1">
          <mxGeometry y="36.888888888888886" width="267" height="8" as="geometry" />
        </mxCell>
        <mxCell id="oIyaJ22jeFS1HljBoGAg-319" value="+render() : : void" style="text;strokeColor=none;fillColor=none;align=left;verticalAlign=top;spacingLeft=4;spacingRight=4;overflow=hidden;rotatable=0;points=[[0,0.5],[1,0.5]];portConstraint=eastwest;" parent="oIyaJ22jeFS1HljBoGAg-317" vertex="1">
          <mxGeometry y="44.888888888888886" width="267" height="37" as="geometry" />
        </mxCell>
        <mxCell id="oIyaJ22jeFS1HljBoGAg-320" value="+handleSearch() : : void" style="text;strokeColor=none;fillColor=none;align=left;verticalAlign=top;spacingLeft=4;spacingRight=4;overflow=hidden;rotatable=0;points=[[0,0.5],[1,0.5]];portConstraint=eastwest;" parent="oIyaJ22jeFS1HljBoGAg-317" vertex="1">
          <mxGeometry y="81.88888888888889" width="267" height="37" as="geometry" />
        </mxCell>
        <mxCell id="oIyaJ22jeFS1HljBoGAg-321" value="+selectMentor() : : void" style="text;strokeColor=none;fillColor=none;align=left;verticalAlign=top;spacingLeft=4;spacingRight=4;overflow=hidden;rotatable=0;points=[[0,0.5],[1,0.5]];portConstraint=eastwest;" parent="oIyaJ22jeFS1HljBoGAg-317" vertex="1">
          <mxGeometry y="118.88888888888889" width="267" height="37" as="geometry" />
        </mxCell>
        <mxCell id="oIyaJ22jeFS1HljBoGAg-322" value="BookingPage" style="swimlane;fontStyle=1;align=center;verticalAlign=top;childLayout=stackLayout;horizontal=1;startSize=36.888888888888886;horizontalStack=0;resizeParent=1;resizeParentMax=0;resizeLast=0;collapsible=0;marginBottom=0;" parent="1" vertex="1">
          <mxGeometry x="3260" y="583" width="251" height="155.88888888888889" as="geometry" />
        </mxCell>
        <mxCell id="oIyaJ22jeFS1HljBoGAg-323" style="line;strokeWidth=1;fillColor=none;align=left;verticalAlign=middle;spacingTop=-1;spacingLeft=3;spacingRight=3;rotatable=0;labelPosition=right;points=[];portConstraint=eastwest;strokeColor=inherit;" parent="oIyaJ22jeFS1HljBoGAg-322" vertex="1">
          <mxGeometry y="36.888888888888886" width="251" height="8" as="geometry" />
        </mxCell>
        <mxCell id="oIyaJ22jeFS1HljBoGAg-324" value="+render() : : void" style="text;strokeColor=none;fillColor=none;align=left;verticalAlign=top;spacingLeft=4;spacingRight=4;overflow=hidden;rotatable=0;points=[[0,0.5],[1,0.5]];portConstraint=eastwest;" parent="oIyaJ22jeFS1HljBoGAg-322" vertex="1">
          <mxGeometry y="44.888888888888886" width="251" height="37" as="geometry" />
        </mxCell>
        <mxCell id="oIyaJ22jeFS1HljBoGAg-325" value="+handleBooking() : : void" style="text;strokeColor=none;fillColor=none;align=left;verticalAlign=top;spacingLeft=4;spacingRight=4;overflow=hidden;rotatable=0;points=[[0,0.5],[1,0.5]];portConstraint=eastwest;" parent="oIyaJ22jeFS1HljBoGAg-322" vertex="1">
          <mxGeometry y="81.88888888888889" width="251" height="37" as="geometry" />
        </mxCell>
        <mxCell id="oIyaJ22jeFS1HljBoGAg-326" value="+openCalendar() : : void" style="text;strokeColor=none;fillColor=none;align=left;verticalAlign=top;spacingLeft=4;spacingRight=4;overflow=hidden;rotatable=0;points=[[0,0.5],[1,0.5]];portConstraint=eastwest;" parent="oIyaJ22jeFS1HljBoGAg-322" vertex="1">
          <mxGeometry y="118.88888888888889" width="251" height="37" as="geometry" />
        </mxCell>
        <mxCell id="oIyaJ22jeFS1HljBoGAg-327" value="CalendarUI" style="swimlane;fontStyle=1;align=center;verticalAlign=top;childLayout=stackLayout;horizontal=1;startSize=36.888888888888886;horizontalStack=0;resizeParent=1;resizeParentMax=0;resizeLast=0;collapsible=0;marginBottom=0;" parent="1" vertex="1">
          <mxGeometry x="2814" y="255" width="256" height="155.88888888888889" as="geometry" />
        </mxCell>
        <mxCell id="oIyaJ22jeFS1HljBoGAg-328" style="line;strokeWidth=1;fillColor=none;align=left;verticalAlign=middle;spacingTop=-1;spacingLeft=3;spacingRight=3;rotatable=0;labelPosition=right;points=[];portConstraint=eastwest;strokeColor=inherit;" parent="oIyaJ22jeFS1HljBoGAg-327" vertex="1">
          <mxGeometry y="36.888888888888886" width="256" height="8" as="geometry" />
        </mxCell>
        <mxCell id="oIyaJ22jeFS1HljBoGAg-329" value="+render() : : void" style="text;strokeColor=none;fillColor=none;align=left;verticalAlign=top;spacingLeft=4;spacingRight=4;overflow=hidden;rotatable=0;points=[[0,0.5],[1,0.5]];portConstraint=eastwest;" parent="oIyaJ22jeFS1HljBoGAg-327" vertex="1">
          <mxGeometry y="44.888888888888886" width="256" height="37" as="geometry" />
        </mxCell>
        <mxCell id="oIyaJ22jeFS1HljBoGAg-330" value="+selectTimeSlot() : : void" style="text;strokeColor=none;fillColor=none;align=left;verticalAlign=top;spacingLeft=4;spacingRight=4;overflow=hidden;rotatable=0;points=[[0,0.5],[1,0.5]];portConstraint=eastwest;" parent="oIyaJ22jeFS1HljBoGAg-327" vertex="1">
          <mxGeometry y="81.88888888888889" width="256" height="37" as="geometry" />
        </mxCell>
        <mxCell id="oIyaJ22jeFS1HljBoGAg-331" value="+showAvailability() : : void" style="text;strokeColor=none;fillColor=none;align=left;verticalAlign=top;spacingLeft=4;spacingRight=4;overflow=hidden;rotatable=0;points=[[0,0.5],[1,0.5]];portConstraint=eastwest;" parent="oIyaJ22jeFS1HljBoGAg-327" vertex="1">
          <mxGeometry y="118.88888888888889" width="256" height="37" as="geometry" />
        </mxCell>
        <mxCell id="oIyaJ22jeFS1HljBoGAg-332" value="SessionDetailPage" style="swimlane;fontStyle=1;align=center;verticalAlign=top;childLayout=stackLayout;horizontal=1;startSize=40.57142857142857;horizontalStack=0;resizeParent=1;resizeParentMax=0;resizeLast=0;collapsible=0;marginBottom=0;" parent="1" vertex="1">
          <mxGeometry x="3560" y="595" width="273" height="130.57142857142856" as="geometry" />
        </mxCell>
        <mxCell id="oIyaJ22jeFS1HljBoGAg-333" style="line;strokeWidth=1;fillColor=none;align=left;verticalAlign=middle;spacingTop=-1;spacingLeft=3;spacingRight=3;rotatable=0;labelPosition=right;points=[];portConstraint=eastwest;strokeColor=inherit;" parent="oIyaJ22jeFS1HljBoGAg-332" vertex="1">
          <mxGeometry y="40.57142857142857" width="273" height="8" as="geometry" />
        </mxCell>
        <mxCell id="oIyaJ22jeFS1HljBoGAg-334" value="+render() : : void" style="text;strokeColor=none;fillColor=none;align=left;verticalAlign=top;spacingLeft=4;spacingRight=4;overflow=hidden;rotatable=0;points=[[0,0.5],[1,0.5]];portConstraint=eastwest;" parent="oIyaJ22jeFS1HljBoGAg-332" vertex="1">
          <mxGeometry y="48.57142857142857" width="273" height="41" as="geometry" />
        </mxCell>
        <mxCell id="oIyaJ22jeFS1HljBoGAg-335" value="+confirmSession() : : void" style="text;strokeColor=none;fillColor=none;align=left;verticalAlign=top;spacingLeft=4;spacingRight=4;overflow=hidden;rotatable=0;points=[[0,0.5],[1,0.5]];portConstraint=eastwest;" parent="oIyaJ22jeFS1HljBoGAg-332" vertex="1">
          <mxGeometry y="89.57142857142857" width="273" height="41" as="geometry" />
        </mxCell>
        <mxCell id="oIyaJ22jeFS1HljBoGAg-336" value="RoomForm" style="swimlane;fontStyle=1;align=center;verticalAlign=top;childLayout=stackLayout;horizontal=1;startSize=36.888888888888886;horizontalStack=0;resizeParent=1;resizeParentMax=0;resizeLast=0;collapsible=0;marginBottom=0;" parent="1" vertex="1">
          <mxGeometry x="3883" y="583" width="251" height="155.88888888888889" as="geometry" />
        </mxCell>
        <mxCell id="oIyaJ22jeFS1HljBoGAg-337" style="line;strokeWidth=1;fillColor=none;align=left;verticalAlign=middle;spacingTop=-1;spacingLeft=3;spacingRight=3;rotatable=0;labelPosition=right;points=[];portConstraint=eastwest;strokeColor=inherit;" parent="oIyaJ22jeFS1HljBoGAg-336" vertex="1">
          <mxGeometry y="36.888888888888886" width="251" height="8" as="geometry" />
        </mxCell>
        <mxCell id="oIyaJ22jeFS1HljBoGAg-338" value="+render() : : void" style="text;strokeColor=none;fillColor=none;align=left;verticalAlign=top;spacingLeft=4;spacingRight=4;overflow=hidden;rotatable=0;points=[[0,0.5],[1,0.5]];portConstraint=eastwest;" parent="oIyaJ22jeFS1HljBoGAg-336" vertex="1">
          <mxGeometry y="44.888888888888886" width="251" height="37" as="geometry" />
        </mxCell>
        <mxCell id="oIyaJ22jeFS1HljBoGAg-339" value="+selectRoom() : : void" style="text;strokeColor=none;fillColor=none;align=left;verticalAlign=top;spacingLeft=4;spacingRight=4;overflow=hidden;rotatable=0;points=[[0,0.5],[1,0.5]];portConstraint=eastwest;" parent="oIyaJ22jeFS1HljBoGAg-336" vertex="1">
          <mxGeometry y="81.88888888888889" width="251" height="37" as="geometry" />
        </mxCell>
        <mxCell id="oIyaJ22jeFS1HljBoGAg-340" value="+confirmBooking() : : void" style="text;strokeColor=none;fillColor=none;align=left;verticalAlign=top;spacingLeft=4;spacingRight=4;overflow=hidden;rotatable=0;points=[[0,0.5],[1,0.5]];portConstraint=eastwest;" parent="oIyaJ22jeFS1HljBoGAg-336" vertex="1">
          <mxGeometry y="118.88888888888889" width="251" height="37" as="geometry" />
        </mxCell>
        <mxCell id="oIyaJ22jeFS1HljBoGAg-341" value="NotificationUI" style="swimlane;fontStyle=1;align=center;verticalAlign=top;childLayout=stackLayout;horizontal=1;startSize=36.888888888888886;horizontalStack=0;resizeParent=1;resizeParentMax=0;resizeLast=0;collapsible=0;marginBottom=0;" parent="1" vertex="1">
          <mxGeometry x="155" y="255" width="279" height="155.88888888888889" as="geometry" />
        </mxCell>
        <mxCell id="oIyaJ22jeFS1HljBoGAg-342" style="line;strokeWidth=1;fillColor=none;align=left;verticalAlign=middle;spacingTop=-1;spacingLeft=3;spacingRight=3;rotatable=0;labelPosition=right;points=[];portConstraint=eastwest;strokeColor=inherit;" parent="oIyaJ22jeFS1HljBoGAg-341" vertex="1">
          <mxGeometry y="36.888888888888886" width="279" height="8" as="geometry" />
        </mxCell>
        <mxCell id="oIyaJ22jeFS1HljBoGAg-343" value="+render() : : void" style="text;strokeColor=none;fillColor=none;align=left;verticalAlign=top;spacingLeft=4;spacingRight=4;overflow=hidden;rotatable=0;points=[[0,0.5],[1,0.5]];portConstraint=eastwest;" parent="oIyaJ22jeFS1HljBoGAg-341" vertex="1">
          <mxGeometry y="44.888888888888886" width="279" height="37" as="geometry" />
        </mxCell>
        <mxCell id="oIyaJ22jeFS1HljBoGAg-344" value="+showNotifications() : : void" style="text;strokeColor=none;fillColor=none;align=left;verticalAlign=top;spacingLeft=4;spacingRight=4;overflow=hidden;rotatable=0;points=[[0,0.5],[1,0.5]];portConstraint=eastwest;" parent="oIyaJ22jeFS1HljBoGAg-341" vertex="1">
          <mxGeometry y="81.88888888888889" width="279" height="37" as="geometry" />
        </mxCell>
        <mxCell id="oIyaJ22jeFS1HljBoGAg-345" value="+markAsRead() : : void" style="text;strokeColor=none;fillColor=none;align=left;verticalAlign=top;spacingLeft=4;spacingRight=4;overflow=hidden;rotatable=0;points=[[0,0.5],[1,0.5]];portConstraint=eastwest;" parent="oIyaJ22jeFS1HljBoGAg-341" vertex="1">
          <mxGeometry y="118.88888888888889" width="279" height="37" as="geometry" />
        </mxCell>
        <mxCell id="oIyaJ22jeFS1HljBoGAg-346" value="HelpRequestUI" style="swimlane;fontStyle=1;align=center;verticalAlign=top;childLayout=stackLayout;horizontal=1;startSize=40.57142857142857;horizontalStack=0;resizeParent=1;resizeParentMax=0;resizeLast=0;collapsible=0;marginBottom=0;" parent="1" vertex="1">
          <mxGeometry x="1624" y="267" width="260" height="130.57142857142856" as="geometry" />
        </mxCell>
        <mxCell id="oIyaJ22jeFS1HljBoGAg-347" style="line;strokeWidth=1;fillColor=none;align=left;verticalAlign=middle;spacingTop=-1;spacingLeft=3;spacingRight=3;rotatable=0;labelPosition=right;points=[];portConstraint=eastwest;strokeColor=inherit;" parent="oIyaJ22jeFS1HljBoGAg-346" vertex="1">
          <mxGeometry y="40.57142857142857" width="260" height="8" as="geometry" />
        </mxCell>
        <mxCell id="oIyaJ22jeFS1HljBoGAg-348" value="+render() : : void" style="text;strokeColor=none;fillColor=none;align=left;verticalAlign=top;spacingLeft=4;spacingRight=4;overflow=hidden;rotatable=0;points=[[0,0.5],[1,0.5]];portConstraint=eastwest;" parent="oIyaJ22jeFS1HljBoGAg-346" vertex="1">
          <mxGeometry y="48.57142857142857" width="260" height="41" as="geometry" />
        </mxCell>
        <mxCell id="oIyaJ22jeFS1HljBoGAg-349" value="+submitRequest() : : void" style="text;strokeColor=none;fillColor=none;align=left;verticalAlign=top;spacingLeft=4;spacingRight=4;overflow=hidden;rotatable=0;points=[[0,0.5],[1,0.5]];portConstraint=eastwest;" parent="oIyaJ22jeFS1HljBoGAg-346" vertex="1">
          <mxGeometry y="89.57142857142857" width="260" height="41" as="geometry" />
        </mxCell>
        <mxCell id="oIyaJ22jeFS1HljBoGAg-350" value="extends" style="curved=1;startArrow=block;startSize=16;startFill=0;endArrow=none;exitX=1;exitY=0.62;entryX=0;entryY=0.23;rounded=0;" parent="1" source="oIyaJ22jeFS1HljBoGAg-193" target="oIyaJ22jeFS1HljBoGAg-204" edge="1">
          <mxGeometry relative="1" as="geometry">
            <Array as="points">
              <mxPoint x="2054" y="863" />
            </Array>
          </mxGeometry>
        </mxCell>
        <mxCell id="oIyaJ22jeFS1HljBoGAg-351" value="creates" style="curved=1;startArrow=none;endArrow=none;exitX=0;exitY=0.6;entryX=0;entryY=0.45;rounded=0;" parent="1" source="oIyaJ22jeFS1HljBoGAg-193" target="oIyaJ22jeFS1HljBoGAg-216" edge="1">
          <mxGeometry relative="1" as="geometry">
            <Array as="points">
              <mxPoint x="157" y="863" />
              <mxPoint x="157" y="1272" />
            </Array>
          </mxGeometry>
        </mxCell>
        <mxCell id="oIyaJ22jeFS1HljBoGAg-352" value="1" style="edgeLabel;resizable=0;labelBackgroundColor=none;fontSize=12;align=left;verticalAlign=top;" parent="oIyaJ22jeFS1HljBoGAg-351" vertex="1">
          <mxGeometry x="-1" relative="1" as="geometry" />
        </mxCell>
        <mxCell id="oIyaJ22jeFS1HljBoGAg-353" value="*" style="edgeLabel;resizable=0;labelBackgroundColor=none;fontSize=12;align=right;verticalAlign=bottom;" parent="oIyaJ22jeFS1HljBoGAg-351" vertex="1">
          <mxGeometry x="1" relative="1" as="geometry" />
        </mxCell>
        <mxCell id="oIyaJ22jeFS1HljBoGAg-354" value="receives" style="curved=1;startArrow=none;endArrow=none;exitX=0.5;exitY=1;entryX=0.83;entryY=0;rounded=0;" parent="1" source="oIyaJ22jeFS1HljBoGAg-204" target="oIyaJ22jeFS1HljBoGAg-216" edge="1">
          <mxGeometry relative="1" as="geometry">
            <Array as="points">
              <mxPoint x="2490" y="1272" />
            </Array>
          </mxGeometry>
        </mxCell>
        <mxCell id="oIyaJ22jeFS1HljBoGAg-355" value="1" style="edgeLabel;resizable=0;labelBackgroundColor=none;fontSize=12;align=right;verticalAlign=top;" parent="oIyaJ22jeFS1HljBoGAg-354" vertex="1">
          <mxGeometry x="-1" relative="1" as="geometry" />
        </mxCell>
        <mxCell id="oIyaJ22jeFS1HljBoGAg-356" value="*" style="edgeLabel;resizable=0;labelBackgroundColor=none;fontSize=12;align=left;verticalAlign=bottom;" parent="oIyaJ22jeFS1HljBoGAg-354" vertex="1">
          <mxGeometry x="1" relative="1" as="geometry" />
        </mxCell>
        <mxCell id="oIyaJ22jeFS1HljBoGAg-357" value="uses" style="curved=1;startArrow=none;endArrow=none;exitX=0;exitY=0.95;entryX=0.5;entryY=0;rounded=0;" parent="1" source="oIyaJ22jeFS1HljBoGAg-216" target="oIyaJ22jeFS1HljBoGAg-229" edge="1">
          <mxGeometry relative="1" as="geometry">
            <Array as="points">
              <mxPoint x="2111" y="1705" />
            </Array>
          </mxGeometry>
        </mxCell>
        <mxCell id="oIyaJ22jeFS1HljBoGAg-358" value="1" style="edgeLabel;resizable=0;labelBackgroundColor=none;fontSize=12;align=right;verticalAlign=top;" parent="oIyaJ22jeFS1HljBoGAg-357" vertex="1">
          <mxGeometry x="-1" relative="1" as="geometry" />
        </mxCell>
        <mxCell id="oIyaJ22jeFS1HljBoGAg-359" value="1" style="edgeLabel;resizable=0;labelBackgroundColor=none;fontSize=12;align=left;verticalAlign=bottom;" parent="oIyaJ22jeFS1HljBoGAg-357" vertex="1">
          <mxGeometry x="1" relative="1" as="geometry" />
        </mxCell>
        <mxCell id="oIyaJ22jeFS1HljBoGAg-360" value="has" style="curved=1;startArrow=none;endArrow=none;exitX=1;exitY=0.95;entryX=0.5;entryY=0;rounded=0;" parent="1" source="oIyaJ22jeFS1HljBoGAg-216" target="oIyaJ22jeFS1HljBoGAg-239" edge="1">
          <mxGeometry relative="1" as="geometry">
            <Array as="points">
              <mxPoint x="2588" y="1705" />
            </Array>
          </mxGeometry>
        </mxCell>
        <mxCell id="oIyaJ22jeFS1HljBoGAg-361" value="1" style="edgeLabel;resizable=0;labelBackgroundColor=none;fontSize=12;align=right;verticalAlign=top;" parent="oIyaJ22jeFS1HljBoGAg-360" vertex="1">
          <mxGeometry x="-1" relative="1" as="geometry" />
        </mxCell>
        <mxCell id="oIyaJ22jeFS1HljBoGAg-362" value="1" style="edgeLabel;resizable=0;labelBackgroundColor=none;fontSize=12;align=left;verticalAlign=bottom;" parent="oIyaJ22jeFS1HljBoGAg-360" vertex="1">
          <mxGeometry x="1" relative="1" as="geometry" />
        </mxCell>
        <mxCell id="oIyaJ22jeFS1HljBoGAg-363" value="receives" style="curved=1;startArrow=none;endArrow=none;exitX=0;exitY=0.62;entryX=0.3;entryY=0;rounded=0;" parent="1" source="oIyaJ22jeFS1HljBoGAg-193" target="oIyaJ22jeFS1HljBoGAg-250" edge="1">
          <mxGeometry relative="1" as="geometry">
            <Array as="points">
              <mxPoint x="320" y="863" />
            </Array>
          </mxGeometry>
        </mxCell>
        <mxCell id="oIyaJ22jeFS1HljBoGAg-364" value="1" style="edgeLabel;resizable=0;labelBackgroundColor=none;fontSize=12;align=right;verticalAlign=top;" parent="oIyaJ22jeFS1HljBoGAg-363" vertex="1">
          <mxGeometry x="-1" relative="1" as="geometry" />
        </mxCell>
        <mxCell id="oIyaJ22jeFS1HljBoGAg-365" value="*" style="edgeLabel;resizable=0;labelBackgroundColor=none;fontSize=12;align=left;verticalAlign=bottom;" parent="oIyaJ22jeFS1HljBoGAg-363" vertex="1">
          <mxGeometry x="1" relative="1" as="geometry" />
        </mxCell>
        <mxCell id="oIyaJ22jeFS1HljBoGAg-366" value="submits" style="curved=1;startArrow=none;endArrow=none;exitX=0.5;exitY=1;entryX=0.14;entryY=0;rounded=0;" parent="1" source="oIyaJ22jeFS1HljBoGAg-193" target="oIyaJ22jeFS1HljBoGAg-261" edge="1">
          <mxGeometry relative="1" as="geometry">
            <Array as="points">
              <mxPoint x="1208" y="863" />
            </Array>
          </mxGeometry>
        </mxCell>
        <mxCell id="oIyaJ22jeFS1HljBoGAg-367" value="1" style="edgeLabel;resizable=0;labelBackgroundColor=none;fontSize=12;align=right;verticalAlign=top;" parent="oIyaJ22jeFS1HljBoGAg-366" vertex="1">
          <mxGeometry x="-1" relative="1" as="geometry" />
        </mxCell>
        <mxCell id="oIyaJ22jeFS1HljBoGAg-368" value="*" style="edgeLabel;resizable=0;labelBackgroundColor=none;fontSize=12;align=left;verticalAlign=bottom;" parent="oIyaJ22jeFS1HljBoGAg-366" vertex="1">
          <mxGeometry x="1" relative="1" as="geometry" />
        </mxCell>
        <mxCell id="oIyaJ22jeFS1HljBoGAg-369" value="manages" style="curved=1;startArrow=none;endArrow=none;exitX=0.5;exitY=1;entryX=0;entryY=0.27;rounded=0;" parent="1" source="oIyaJ22jeFS1HljBoGAg-271" target="oIyaJ22jeFS1HljBoGAg-193" edge="1">
          <mxGeometry relative="1" as="geometry">
            <Array as="points">
              <mxPoint x="758" y="478" />
            </Array>
          </mxGeometry>
        </mxCell>
        <mxCell id="oIyaJ22jeFS1HljBoGAg-370" value="manages" style="curved=1;startArrow=none;endArrow=none;exitX=0.5;exitY=1;entryX=0.72;entryY=0;rounded=0;" parent="1" source="oIyaJ22jeFS1HljBoGAg-277" target="oIyaJ22jeFS1HljBoGAg-193" edge="1">
          <mxGeometry relative="1" as="geometry">
            <Array as="points">
              <mxPoint x="1298" y="478" />
            </Array>
          </mxGeometry>
        </mxCell>
        <mxCell id="oIyaJ22jeFS1HljBoGAg-371" value="queries" style="curved=1;startArrow=none;endArrow=none;exitX=0.5;exitY=1;entryX=0.2;entryY=0;rounded=0;" parent="1" source="oIyaJ22jeFS1HljBoGAg-283" target="oIyaJ22jeFS1HljBoGAg-204" edge="1">
          <mxGeometry relative="1" as="geometry">
            <Array as="points">
              <mxPoint x="2349" y="863" />
            </Array>
          </mxGeometry>
        </mxCell>
        <mxCell id="oIyaJ22jeFS1HljBoGAg-372" value="manages" style="curved=1;startArrow=none;endArrow=none;exitX=0.5;exitY=1;entryX=1;entryY=0.42;rounded=0;" parent="1" source="oIyaJ22jeFS1HljBoGAg-288" target="oIyaJ22jeFS1HljBoGAg-216" edge="1">
          <mxGeometry relative="1" as="geometry">
            <Array as="points">
              <mxPoint x="3721" y="1272" />
            </Array>
          </mxGeometry>
        </mxCell>
        <mxCell id="oIyaJ22jeFS1HljBoGAg-373" value="checks availability" style="curved=1;startArrow=none;endArrow=none;exitX=0.5;exitY=1;entryX=1;entryY=0.24;rounded=0;" parent="1" source="oIyaJ22jeFS1HljBoGAg-294" target="oIyaJ22jeFS1HljBoGAg-204" edge="1">
          <mxGeometry relative="1" as="geometry">
            <Array as="points">
              <mxPoint x="2942" y="863" />
            </Array>
          </mxGeometry>
        </mxCell>
        <mxCell id="oIyaJ22jeFS1HljBoGAg-374" value="manages" style="curved=1;startArrow=none;endArrow=none;exitX=0.65;exitY=1;entryX=0.58;entryY=0;rounded=0;" parent="1" source="oIyaJ22jeFS1HljBoGAg-299" target="oIyaJ22jeFS1HljBoGAg-250" edge="1">
          <mxGeometry relative="1" as="geometry">
            <Array as="points">
              <mxPoint x="474" y="863" />
            </Array>
          </mxGeometry>
        </mxCell>
        <mxCell id="oIyaJ22jeFS1HljBoGAg-375" value="manages" style="curved=1;startArrow=none;endArrow=none;exitX=0.5;exitY=1;entryX=1;entryY=0.09;rounded=0;" parent="1" source="oIyaJ22jeFS1HljBoGAg-304" target="oIyaJ22jeFS1HljBoGAg-261" edge="1">
          <mxGeometry relative="1" as="geometry">
            <Array as="points">
              <mxPoint x="1754" y="863" />
            </Array>
          </mxGeometry>
        </mxCell>
        <mxCell id="oIyaJ22jeFS1HljBoGAg-376" value="uses" style="curved=1;dashed=1;startArrow=none;endArrow=open;endSize=12;exitX=0.5;exitY=1;entryX=0.5;entryY=0;rounded=0;" parent="1" source="oIyaJ22jeFS1HljBoGAg-309" target="oIyaJ22jeFS1HljBoGAg-271" edge="1">
          <mxGeometry relative="1" as="geometry">
            <Array as="points" />
          </mxGeometry>
        </mxCell>
        <mxCell id="oIyaJ22jeFS1HljBoGAg-377" value="uses" style="curved=1;dashed=1;startArrow=none;endArrow=open;endSize=12;exitX=0.5;exitY=1;entryX=0.5;entryY=0;rounded=0;" parent="1" source="oIyaJ22jeFS1HljBoGAg-313" target="oIyaJ22jeFS1HljBoGAg-277" edge="1">
          <mxGeometry relative="1" as="geometry">
            <Array as="points" />
          </mxGeometry>
        </mxCell>
        <mxCell id="oIyaJ22jeFS1HljBoGAg-378" value="uses" style="curved=1;dashed=1;startArrow=none;endArrow=open;endSize=12;exitX=0.5;exitY=1;entryX=0.5;entryY=0;rounded=0;" parent="1" source="oIyaJ22jeFS1HljBoGAg-317" target="oIyaJ22jeFS1HljBoGAg-283" edge="1">
          <mxGeometry relative="1" as="geometry">
            <Array as="points" />
          </mxGeometry>
        </mxCell>
        <mxCell id="oIyaJ22jeFS1HljBoGAg-379" value="uses" style="curved=1;dashed=1;startArrow=none;endArrow=open;endSize=12;exitX=0.5;exitY=1;entryX=0.2;entryY=0;rounded=0;" parent="1" source="oIyaJ22jeFS1HljBoGAg-322" target="oIyaJ22jeFS1HljBoGAg-288" edge="1">
          <mxGeometry relative="1" as="geometry">
            <Array as="points">
              <mxPoint x="3385" y="863" />
            </Array>
          </mxGeometry>
        </mxCell>
        <mxCell id="oIyaJ22jeFS1HljBoGAg-380" value="uses" style="curved=1;dashed=1;startArrow=none;endArrow=open;endSize=12;exitX=0.5;exitY=1;entryX=0.5;entryY=0;rounded=0;" parent="1" source="oIyaJ22jeFS1HljBoGAg-327" target="oIyaJ22jeFS1HljBoGAg-294" edge="1">
          <mxGeometry relative="1" as="geometry">
            <Array as="points" />
          </mxGeometry>
        </mxCell>
        <mxCell id="oIyaJ22jeFS1HljBoGAg-381" value="uses" style="curved=1;dashed=1;startArrow=none;endArrow=open;endSize=12;exitX=0.5;exitY=1;entryX=0.48;entryY=0;rounded=0;" parent="1" source="oIyaJ22jeFS1HljBoGAg-332" target="oIyaJ22jeFS1HljBoGAg-288" edge="1">
          <mxGeometry relative="1" as="geometry">
            <Array as="points">
              <mxPoint x="3697" y="863" />
            </Array>
          </mxGeometry>
        </mxCell>
        <mxCell id="oIyaJ22jeFS1HljBoGAg-382" value="uses" style="curved=1;dashed=1;startArrow=none;endArrow=open;endSize=12;exitX=0.5;exitY=1;entryX=0.76;entryY=0;rounded=0;" parent="1" source="oIyaJ22jeFS1HljBoGAg-336" target="oIyaJ22jeFS1HljBoGAg-288" edge="1">
          <mxGeometry relative="1" as="geometry">
            <Array as="points">
              <mxPoint x="4009" y="863" />
            </Array>
          </mxGeometry>
        </mxCell>
        <mxCell id="oIyaJ22jeFS1HljBoGAg-383" value="uses" style="curved=1;dashed=1;startArrow=none;endArrow=open;endSize=12;exitX=0.5;exitY=1;entryX=0.5;entryY=0;rounded=0;" parent="1" source="oIyaJ22jeFS1HljBoGAg-341" target="oIyaJ22jeFS1HljBoGAg-299" edge="1">
          <mxGeometry relative="1" as="geometry">
            <Array as="points" />
          </mxGeometry>
        </mxCell>
        <mxCell id="oIyaJ22jeFS1HljBoGAg-384" value="uses" style="curved=1;dashed=1;startArrow=none;endArrow=open;endSize=12;exitX=0.5;exitY=1;entryX=0.5;entryY=0;rounded=0;" parent="1" source="oIyaJ22jeFS1HljBoGAg-346" target="oIyaJ22jeFS1HljBoGAg-304" edge="1">
          <mxGeometry relative="1" as="geometry">
            <Array as="points" />
          </mxGeometry>
        </mxCell>
        <mxCell id="XKxvWP7VcoakBPf1oIpf-1" value="VoiceCall" style="swimlane;fontStyle=1;align=center;verticalAlign=top;childLayout=stackLayout;horizontal=1;startSize=28.266666666666666;horizontalStack=0;resizeParent=1;resizeParentMax=0;resizeLast=0;collapsible=0;marginBottom=0;" vertex="1" parent="1">
          <mxGeometry x="1120" y="1530" width="442" height="428.26666666666665" as="geometry" />
        </mxCell>
        <mxCell id="XKxvWP7VcoakBPf1oIpf-2" value="-id: String" style="text;strokeColor=none;fillColor=none;align=left;verticalAlign=top;spacingLeft=4;spacingRight=4;overflow=hidden;rotatable=0;points=[[0,0.5],[1,0.5]];portConstraint=eastwest;" vertex="1" parent="XKxvWP7VcoakBPf1oIpf-1">
          <mxGeometry y="28.266666666666666" width="442" height="28" as="geometry" />
        </mxCell>
        <mxCell id="XKxvWP7VcoakBPf1oIpf-3" value="-sessionId: String" style="text;strokeColor=none;fillColor=none;align=left;verticalAlign=top;spacingLeft=4;spacingRight=4;overflow=hidden;rotatable=0;points=[[0,0.5],[1,0.5]];portConstraint=eastwest;" vertex="1" parent="XKxvWP7VcoakBPf1oIpf-1">
          <mxGeometry y="56.266666666666666" width="442" height="28" as="geometry" />
        </mxCell>
        <mxCell id="XKxvWP7VcoakBPf1oIpf-4" value="-callerId: String" style="text;strokeColor=none;fillColor=none;align=left;verticalAlign=top;spacingLeft=4;spacingRight=4;overflow=hidden;rotatable=0;points=[[0,0.5],[1,0.5]];portConstraint=eastwest;" vertex="1" parent="XKxvWP7VcoakBPf1oIpf-1">
          <mxGeometry y="84.26666666666667" width="442" height="28" as="geometry" />
        </mxCell>
        <mxCell id="XKxvWP7VcoakBPf1oIpf-5" value="-receiverId: String" style="text;strokeColor=none;fillColor=none;align=left;verticalAlign=top;spacingLeft=4;spacingRight=4;overflow=hidden;rotatable=0;points=[[0,0.5],[1,0.5]];portConstraint=eastwest;" vertex="1" parent="XKxvWP7VcoakBPf1oIpf-1">
          <mxGeometry y="112.26666666666667" width="442" height="28" as="geometry" />
        </mxCell>
        <mxCell id="XKxvWP7VcoakBPf1oIpf-6" value="-startTime: Date" style="text;strokeColor=none;fillColor=none;align=left;verticalAlign=top;spacingLeft=4;spacingRight=4;overflow=hidden;rotatable=0;points=[[0,0.5],[1,0.5]];portConstraint=eastwest;" vertex="1" parent="XKxvWP7VcoakBPf1oIpf-1">
          <mxGeometry y="140.26666666666665" width="442" height="28" as="geometry" />
        </mxCell>
        <mxCell id="XKxvWP7VcoakBPf1oIpf-7" value="-endTime: Date" style="text;strokeColor=none;fillColor=none;align=left;verticalAlign=top;spacingLeft=4;spacingRight=4;overflow=hidden;rotatable=0;points=[[0,0.5],[1,0.5]];portConstraint=eastwest;" vertex="1" parent="XKxvWP7VcoakBPf1oIpf-1">
          <mxGeometry y="168.26666666666665" width="442" height="28" as="geometry" />
        </mxCell>
        <mxCell id="XKxvWP7VcoakBPf1oIpf-8" value="-duration: Number" style="text;strokeColor=none;fillColor=none;align=left;verticalAlign=top;spacingLeft=4;spacingRight=4;overflow=hidden;rotatable=0;points=[[0,0.5],[1,0.5]];portConstraint=eastwest;" vertex="1" parent="XKxvWP7VcoakBPf1oIpf-1">
          <mxGeometry y="196.26666666666665" width="442" height="28" as="geometry" />
        </mxCell>
        <mxCell id="XKxvWP7VcoakBPf1oIpf-9" value="-status: String" style="text;strokeColor=none;fillColor=none;align=left;verticalAlign=top;spacingLeft=4;spacingRight=4;overflow=hidden;rotatable=0;points=[[0,0.5],[1,0.5]];portConstraint=eastwest;" vertex="1" parent="XKxvWP7VcoakBPf1oIpf-1">
          <mxGeometry y="224.26666666666665" width="442" height="28" as="geometry" />
        </mxCell>
        <mxCell id="XKxvWP7VcoakBPf1oIpf-10" value="-quality: String" style="text;strokeColor=none;fillColor=none;align=left;verticalAlign=top;spacingLeft=4;spacingRight=4;overflow=hidden;rotatable=0;points=[[0,0.5],[1,0.5]];portConstraint=eastwest;" vertex="1" parent="XKxvWP7VcoakBPf1oIpf-1">
          <mxGeometry y="252.26666666666665" width="442" height="28" as="geometry" />
        </mxCell>
        <mxCell id="XKxvWP7VcoakBPf1oIpf-11" value="-recordingUrl: String" style="text;strokeColor=none;fillColor=none;align=left;verticalAlign=top;spacingLeft=4;spacingRight=4;overflow=hidden;rotatable=0;points=[[0,0.5],[1,0.5]];portConstraint=eastwest;" vertex="1" parent="XKxvWP7VcoakBPf1oIpf-1">
          <mxGeometry y="280.26666666666665" width="442" height="28" as="geometry" />
        </mxCell>
        <mxCell id="XKxvWP7VcoakBPf1oIpf-12" style="line;strokeWidth=1;fillColor=none;align=left;verticalAlign=middle;spacingTop=-1;spacingLeft=3;spacingRight=3;rotatable=0;labelPosition=right;points=[];portConstraint=eastwest;strokeColor=inherit;" vertex="1" parent="XKxvWP7VcoakBPf1oIpf-1">
          <mxGeometry y="308.26666666666665" width="442" height="8" as="geometry" />
        </mxCell>
        <mxCell id="XKxvWP7VcoakBPf1oIpf-13" value="+startCall(callerId String, receiverId String) : Boolean" style="text;strokeColor=none;fillColor=none;align=left;verticalAlign=top;spacingLeft=4;spacingRight=4;overflow=hidden;rotatable=0;points=[[0,0.5],[1,0.5]];portConstraint=eastwest;" vertex="1" parent="XKxvWP7VcoakBPf1oIpf-1">
          <mxGeometry y="316.26666666666665" width="442" height="28" as="geometry" />
        </mxCell>
        <mxCell id="XKxvWP7VcoakBPf1oIpf-14" value="+endCall() : Boolean" style="text;strokeColor=none;fillColor=none;align=left;verticalAlign=top;spacingLeft=4;spacingRight=4;overflow=hidden;rotatable=0;points=[[0,0.5],[1,0.5]];portConstraint=eastwest;" vertex="1" parent="XKxvWP7VcoakBPf1oIpf-1">
          <mxGeometry y="344.26666666666665" width="442" height="28" as="geometry" />
        </mxCell>
        <mxCell id="XKxvWP7VcoakBPf1oIpf-15" value="+toggleMute() : Boolean" style="text;strokeColor=none;fillColor=none;align=left;verticalAlign=top;spacingLeft=4;spacingRight=4;overflow=hidden;rotatable=0;points=[[0,0.5],[1,0.5]];portConstraint=eastwest;" vertex="1" parent="XKxvWP7VcoakBPf1oIpf-1">
          <mxGeometry y="372.26666666666665" width="442" height="28" as="geometry" />
        </mxCell>
        <mxCell id="XKxvWP7VcoakBPf1oIpf-16" value="+getCallDetails() : Object" style="text;strokeColor=none;fillColor=none;align=left;verticalAlign=top;spacingLeft=4;spacingRight=4;overflow=hidden;rotatable=0;points=[[0,0.5],[1,0.5]];portConstraint=eastwest;" vertex="1" parent="XKxvWP7VcoakBPf1oIpf-1">
          <mxGeometry y="400.26666666666665" width="442" height="28" as="geometry" />
        </mxCell>
        <mxCell id="XKxvWP7VcoakBPf1oIpf-17" value="manages" style="curved=1;startArrow=none;endArrow=none;exitX=0.227;exitY=1.006;entryX=0.25;entryY=0;rounded=0;exitDx=0;exitDy=0;exitPerimeter=0;entryDx=0;entryDy=0;" edge="1" parent="1" source="oIyaJ22jeFS1HljBoGAg-276" target="XKxvWP7VcoakBPf1oIpf-1">
          <mxGeometry relative="1" as="geometry">
            <Array as="points">
              <mxPoint x="840" y="932" />
            </Array>
            <mxPoint x="840" y="880" as="sourcePoint" />
            <mxPoint x="1121" y="1051" as="targetPoint" />
          </mxGeometry>
        </mxCell>
      </root>
    </mxGraphModel>
  </diagram>
</mxfile>
